<?xml version="1.0" standalone="no"?>
<!DOCTYPE svg PUBLIC "-//W3C//DTD SVG 20010904//EN"
 "http://www.w3.org/TR/2001/REC-SVG-20010904/DTD/svg10.dtd">
<svg version="1.0" xmlns="http://www.w3.org/2000/svg"
 width="500.000000pt" height="500.000000pt" viewBox="0 0 500.000000 500.000000"
 preserveAspectRatio="xMidYMid meet">
<metadata>
Created by potrace 1.14, written by Peter Selinger 2001-2017
</metadata>
<g transform="translate(0.000000,500.000000) scale(0.100000,-0.100000)"
fill="#000000" stroke="none">
<path d="M0 2500 l0 -2500 2500 0 2500 0 0 2500 0 2500 -2500 0 -2500 0 0
-2500z m2805 1486 c465 -139 785 -530 825 -1006 47 -564 -302 -1046 -870
-1203 -103 -28 -408 -31 -513 -4 -396 100 -705 382 -831 758 -65 193 -74 448
-23 642 45 170 147 357 272 495 107 118 310 247 480 303 134 44 171 48 375 45
178 -3 203 -5 285 -30z m-57 -2482 c4 -27 -26 -40 -46 -20 -21 20 -8 48 20 44
14 -2 24 -11 26 -24z m-761 -86 c13 -12 23 -27 23 -35 0 -18 -35 -16 -65 3
-40 26 -77 -4 -59 -50 7 -18 64 -23 64 -6 0 6 14 10 30 10 38 0 39 -21 4 -49
-32 -25 -90 -28 -122 -5 -34 23 -45 60 -31 101 20 62 105 79 156 31z m210 0
c32 -30 32 -90 -2 -123 -18 -19 -35 -25 -69 -25 -37 0 -48 5 -70 31 -14 17
-26 39 -26 49 0 85 104 128 167 68z m189 16 c60 -29 67 -110 12 -148 -49 -34
-129 -12 -149 41 -15 40 6 92 45 109 40 17 51 17 92 -2z m252 -20 c31 -35 30
-87 -4 -120 -20 -21 -33 -25 -65 -22 l-39 4 0 -53 c0 -52 0 -53 -30 -53 l-30
0 0 135 0 135 45 -2 c25 0 48 2 52 5 11 12 47 -3 71 -29z m297 11 c22 -21 25
-33 25 -90 l0 -65 -30 0 c-30 0 -30 0 -30 59 0 62 -7 75 -34 65 -12 -5 -16
-20 -16 -65 0 -59 0 -59 -30 -59 l-30 0 0 85 0 86 40 -3 c22 -1 43 1 46 5 14
13 35 7 59 -18z m206 6 c19 -16 24 -30 27 -90 l4 -71 -30 0 c-31 0 -31 0 -34
63 -3 54 -5 62 -23 62 -18 0 -20 -8 -23 -62 -3 -62 -3 -63 -32 -63 l-30 0 0
85 0 86 40 -3 c22 -1 43 1 46 5 12 12 31 8 55 -12z m-391 -76 l0 -85 -30 0
-30 0 0 85 0 85 30 0 30 0 0 -85z"/>
<path d="M2430 3694 c-223 -27 -436 -140 -562 -302 -116 -147 -172 -301 -173
-472 0 -100 1 -107 30 -149 89 -131 288 -118 362 24 9 16 20 68 25 114 5 52
17 104 32 137 56 123 189 216 324 229 93 9 145 30 186 75 65 72 71 167 16 253
-46 72 -129 104 -240 91z"/>
<path d="M2100 1386 c-19 -23 -8 -61 18 -64 44 -7 67 32 36 62 -19 20 -38 20
-54 2z"/>
<path d="M2315 1387 c-13 -10 -16 -21 -11 -40 5 -22 12 -27 36 -27 24 0 31 5
36 27 5 19 2 30 -11 40 -11 7 -22 13 -25 13 -3 0 -14 -6 -25 -13z"/>
<path d="M2536 1378 c-20 -28 -4 -58 29 -58 33 0 49 30 29 58 -8 12 -21 22
-29 22 -8 0 -21 -10 -29 -22z"/>
</g>
</svg>
