<?xml version="1.0" standalone="no"?>
<!DOCTYPE svg PUBLIC "-//W3C//DTD SVG 20010904//EN"
 "http://www.w3.org/TR/2001/REC-SVG-20010904/DTD/svg10.dtd">
<svg version="1.0" xmlns="http://www.w3.org/2000/svg"
 width="1500.000000pt" height="1500.000000pt" viewBox="0 0 1500.000000 1500.000000"
 preserveAspectRatio="xMidYMid meet">
<metadata>
Created by potrace 1.14, written by Peter Selinger 2001-2017
</metadata>
<g transform="translate(0.000000,1500.000000) scale(0.100000,-0.100000)"
fill="#000000" stroke="none">
<path d="M8588 8049 c-31 -12 -44 -56 -35 -116 8 -47 31 -62 98 -63 76 0 99
21 99 93 0 73 -14 89 -81 93 -30 2 -66 -1 -81 -7z"/>
<path d="M2895 7779 c-116 -12 -204 -55 -273 -134 -150 -170 -142 -476 16
-634 55 -55 92 -77 172 -101 134 -40 355 4 418 85 27 34 21 83 -13 113 -34 29
-64 28 -125 -4 -90 -47 -221 -40 -285 14 -94 79 -125 224 -73 344 59 137 230
186 358 101 19 -13 48 -23 65 -23 31 0 74 30 76 53 0 7 2 22 5 33 5 31 -35 85
-83 112 -57 31 -171 49 -258 41z"/>
<path d="M4170 7753 c-239 -89 -348 -377 -234 -619 110 -235 416 -312 639
-162 71 47 118 105 153 190 21 51 27 82 29 160 3 137 -21 212 -103 314 -102
128 -318 180 -484 117z m252 -171 c97 -43 149 -136 143 -258 -6 -141 -89 -237
-215 -251 -141 -15 -260 98 -263 250 -2 83 18 148 60 197 72 84 174 107 275
62z"/>
<path d="M5723 7760 c-119 -42 -217 -134 -264 -250 -32 -79 -36 -235 -9 -316
69 -200 234 -310 446 -298 187 11 340 137 389 324 19 74 12 213 -14 282 -45
117 -136 208 -251 252 -83 31 -217 33 -297 6z m233 -175 c91 -34 156 -152 149
-267 -10 -148 -114 -250 -250 -244 -94 4 -166 51 -206 135 -31 64 -32 186 -3
251 57 123 182 174 310 125z"/>
<path d="M7370 7771 c-43 -14 -88 -40 -125 -72 -19 -17 -36 -28 -36 -25 -1 3
-2 9 -3 14 -10 45 -67 84 -112 76 -33 -6 -50 -19 -67 -48 -15 -27 -20 -1014
-5 -1064 23 -75 136 -82 171 -11 10 21 13 72 13 189 -1 88 2 160 5 160 4 0 18
-9 32 -20 45 -36 131 -70 187 -73 240 -16 418 171 418 438 0 191 -80 335 -225
407 -54 26 -78 32 -146 35 -45 1 -93 -1 -107 -6z m147 -182 c45 -14 101 -71
125 -127 45 -100 20 -258 -51 -326 -89 -85 -241 -84 -319 3 -67 74 -90 201
-56 304 22 66 94 140 150 154 44 11 103 8 151 -8z"/>
<path d="M9825 7749 c-33 -16 -77 -46 -97 -67 -35 -33 -38 -34 -38 -14 0 56
-56 107 -107 97 -10 -2 -21 -4 -24 -4 -3 -1 -17 -10 -30 -22 l-24 -21 -3 -373
-3 -373 23 -27 c16 -18 37 -28 65 -32 37 -5 45 -2 73 25 l30 30 0 242 c0 195
3 248 15 278 33 78 89 114 179 115 79 0 118 -20 145 -76 20 -40 21 -60 21
-284 0 -150 4 -252 11 -272 25 -72 134 -81 170 -13 22 40 18 535 -5 621 -37
139 -108 194 -256 198 -77 2 -90 0 -145 -28z"/>
<path d="M11367 7765 c-45 -17 -89 -46 -134 -89 -32 -29 -33 -29 -33 -7 0 48
-48 100 -90 96 -8 -1 -23 -3 -33 -3 -10 -1 -29 -14 -42 -28 l-25 -27 0 -369 0
-370 29 -29 c22 -21 39 -29 66 -29 27 0 44 8 66 29 32 33 30 10 30 321 -1 197
8 246 53 289 83 80 251 70 284 -17 22 -57 24 -80 24 -305 1 -128 5 -245 11
-260 10 -29 52 -57 87 -57 34 0 80 32 87 60 13 47 7 523 -6 587 -19 89 -57
152 -113 186 -41 25 -59 30 -135 33 -61 3 -100 -1 -126 -11z"/>
<path d="M8596 7746 c-14 -11 -29 -32 -34 -46 -6 -19 -9 -612 -3 -717 1 -31
50 -73 84 -73 42 0 84 26 95 58 6 18 9 167 9 385 l-2 357 -26 25 c-34 35 -88
40 -123 11z"/>
<path d="M12535 7105 c-36 -35 -38 -135 -4 -170 29 -30 130 -29 161 2 25 25
33 96 16 143 -18 54 -128 70 -173 25z"/>
</g>
</svg>
