<?xml version="1.0" standalone="no"?>
<!DOCTYPE svg PUBLIC "-//W3C//DTD SVG 20010904//EN"
 "http://www.w3.org/TR/2001/REC-SVG-20010904/DTD/svg10.dtd">
<svg version="1.0" xmlns="http://www.w3.org/2000/svg"
 width="1500.000000pt" height="1500.000000pt" viewBox="0 0 1500.000000 1500.000000"
 preserveAspectRatio="xMidYMid meet">
<metadata>
Created by potrace 1.14, written by Peter Selinger 2001-2017
</metadata>
<g transform="translate(0.000000,1500.000000) scale(0.100000,-0.100000)"
fill="#000000" stroke="none">
<path d="M2728 11639 c-248 -34 -455 -201 -549 -443 -79 -206 -74 -469 15
-669 128 -290 422 -449 751 -405 111 15 127 18 202 44 159 53 235 120 235 207
0 127 -124 188 -241 120 -25 -14 -48 -30 -51 -34 -13 -20 -120 -37 -215 -35
-74 2 -114 8 -155 24 -154 60 -256 220 -264 412 -8 204 80 367 239 442 62 29
81 33 167 35 108 2 183 -14 233 -51 72 -55 147 -71 198 -44 78 41 98 156 42
240 -45 67 -180 134 -311 153 -64 10 -235 12 -296 4z"/>
<path d="M5868 11645 c-2 -2 -19 -5 -38 -8 -216 -30 -407 -156 -518 -341 -81
-134 -111 -254 -110 -431 1 -213 71 -387 213 -530 108 -110 215 -168 370 -200
82 -17 213 -22 275 -11 19 4 49 9 65 12 17 3 55 15 85 26 261 94 435 306 479
583 11 72 7 241 -7 310 -38 181 -139 339 -286 449 -114 86 -264 136 -423 141
-56 2 -103 2 -105 0z m256 -344 c275 -132 330 -560 98 -772 -113 -103 -248
-133 -398 -88 -137 42 -244 163 -280 316 -12 51 -13 204 -2 243 48 172 141
276 293 327 25 8 73 12 130 9 77 -2 101 -8 159 -35z"/>
<path d="M9170 11637 c-151 -29 -288 -96 -386 -188 -212 -202 -282 -498 -196
-829 13 -50 68 -156 112 -214 102 -136 239 -225 413 -266 378 -90 759 103 883
446 35 95 51 183 52 287 3 389 -241 692 -613 763 -57 11 -212 12 -265 1z m303
-335 c150 -74 237 -219 242 -407 4 -153 -45 -277 -147 -370 -194 -175 -493
-123 -625 108 -39 67 -55 129 -59 223 -5 150 37 271 127 364 84 87 173 121
305 117 79 -2 100 -7 157 -35z"/>
<path d="M5653 8430 c-80 -18 -103 -58 -100 -172 4 -121 41 -149 191 -145 123
4 149 29 152 147 3 98 -15 145 -62 160 -43 15 -139 20 -181 10z"/>
<path d="M2883 7949 c-106 -17 -238 -85 -310 -159 -34 -35 -35 -34 -47 22 -9
40 -61 95 -103 109 -75 24 -166 -12 -200 -81 -16 -32 -18 -101 -18 -910 -1
-516 2 -890 8 -913 35 -139 235 -154 304 -23 15 27 17 72 19 316 1 157 2 286
3 288 0 1 25 -15 54 -37 119 -89 244 -132 387 -132 241 -1 439 120 564 344 38
69 80 188 90 257 20 140 8 328 -30 442 -71 220 -235 390 -436 453 -87 27 -201
37 -285 24z m207 -331 c92 -45 172 -136 206 -231 23 -65 27 -87 29 -182 6
-213 -101 -395 -266 -453 -221 -77 -440 40 -515 277 -22 66 -25 217 -8 292 37
157 152 285 288 320 17 4 72 7 121 6 75 -2 100 -7 145 -29z"/>
<path d="M8550 7941 c-88 -22 -187 -79 -265 -154 -36 -34 -65 -62 -65 -62 -1
0 -3 22 -5 48 -15 172 -232 216 -312 63 -15 -28 -17 -96 -18 -626 -1 -620 1
-657 42 -702 75 -83 222 -65 270 32 16 31 18 75 20 427 1 245 6 413 13 447 11
56 57 130 100 164 70 54 110 66 220 67 92 0 111 -3 155 -25 30 -15 61 -41 77
-65 52 -76 56 -114 57 -558 2 -459 2 -464 71 -512 93 -64 222 -21 255 84 9 30
9 805 0 898 -20 191 -89 343 -188 411 -102 71 -286 98 -427 63z"/>
<path d="M11873 7944 c-34 -7 -83 -22 -108 -33 -63 -28 -162 -100 -208 -150
-27 -30 -37 -36 -38 -24 -3 88 -29 138 -89 172 -65 36 -147 24 -197 -31 -48
-52 -48 -55 -47 -683 1 -324 4 -603 8 -620 18 -92 132 -146 226 -108 34 14 76
58 88 91 5 15 9 198 10 409 0 210 3 401 7 425 18 106 107 209 207 241 75 23
183 22 251 -3 63 -24 98 -57 129 -125 22 -49 22 -58 28 -495 5 -455 6 -468 44
-505 87 -87 241 -56 277 54 13 39 17 840 5 916 -3 22 -9 56 -12 75 -32 200
-142 341 -298 385 -76 22 -204 26 -283 9z"/>
<path d="M5669 7920 c-39 -11 -76 -48 -93 -92 -14 -33 -16 -119 -16 -641 0
-565 2 -604 19 -643 48 -107 205 -121 278 -25 l28 36 3 620 c3 667 4 655 -50
708 -46 45 -103 57 -169 37z"/>
<path d="M2291 3134 c-78 -23 -104 -68 -104 -181 1 -126 42 -178 148 -186 150
-11 214 44 216 186 1 91 -23 142 -82 172 -35 19 -130 23 -178 9z"/>
</g>
</svg>
