<?xml version="1.0" standalone="no"?>
<!DOCTYPE svg PUBLIC "-//W3C//DTD SVG 20010904//EN"
 "http://www.w3.org/TR/2001/REC-SVG-20010904/DTD/svg10.dtd">
<svg version="1.0" xmlns="http://www.w3.org/2000/svg"
 width="1500.000000pt" height="1500.000000pt" viewBox="0 0 1500.000000 1500.000000"
 preserveAspectRatio="xMidYMid meet">
<metadata>
Created by potrace 1.14, written by Peter Selinger 2001-2017
</metadata>
<g transform="translate(0.000000,1500.000000) scale(0.100000,-0.100000)"
fill="#000000" stroke="none">
<path d="M2732 11640 c-262 -37 -484 -225 -569 -483 -48 -147 -55 -348 -17
-497 39 -153 135 -308 244 -394 151 -119 331 -167 539 -146 202 21 336 73 414
159 37 41 42 58 38 116 -10 114 -137 163 -246 94 -83 -53 -119 -62 -245 -62
-138 -1 -201 19 -279 89 -107 96 -153 206 -153 369 0 264 148 435 393 452 113
8 172 -8 294 -82 56 -35 132 -35 169 0 78 72 71 197 -15 270 -44 37 -143 82
-222 100 -80 18 -264 26 -345 15z"/>
<path d="M5805 11636 c-158 -32 -272 -92 -385 -206 -71 -70 -94 -102 -133
-180 -69 -139 -82 -198 -82 -370 0 -157 12 -219 62 -334 128 -290 429 -457
763 -424 412 40 691 376 667 802 -7 121 -28 207 -73 302 -92 196 -263 339
-469 394 -103 27 -257 34 -350 16z m298 -325 c36 -14 79 -43 116 -76 228 -211
184 -631 -81 -766 -276 -141 -580 45 -605 370 -3 42 0 103 6 136 14 73 61 175
105 229 40 48 129 104 194 123 67 19 194 11 265 -16z"/>
<path d="M9178 11640 c-170 -31 -293 -94 -408 -210 -70 -70 -94 -102 -133
-180 -69 -139 -82 -198 -82 -370 0 -171 13 -230 81 -368 108 -221 317 -362
578 -390 378 -42 710 179 808 538 33 121 33 318 0 440 -70 256 -265 453 -517
520 -89 23 -254 34 -327 20z m275 -329 c178 -69 291 -293 258 -511 -41 -265
-272 -428 -516 -365 -266 70 -395 407 -259 678 54 107 144 183 252 214 67 19
194 11 265 -16z"/>
<path d="M5636 8427 c-59 -18 -80 -54 -84 -141 -7 -133 36 -176 179 -176 130
0 169 39 169 167 0 116 -34 152 -151 159 -43 2 -90 -1 -113 -9z"/>
<path d="M2870 7949 c-76 -12 -208 -79 -273 -139 l-54 -49 -12 42 c-23 75 -88
127 -161 127 -78 0 -154 -65 -165 -142 -3 -24 -5 -432 -3 -908 l3 -865 24 -38
c75 -121 262 -91 300 48 7 24 11 146 11 307 l0 268 47 -36 c119 -90 255 -137
403 -136 211 1 396 103 519 287 94 142 134 284 135 480 0 156 -21 252 -84 380
-136 276 -402 420 -690 374z m223 -334 c154 -76 249 -262 232 -460 -16 -189
-101 -327 -244 -394 -49 -23 -69 -26 -156 -26 -87 0 -107 3 -156 26 -104 49
-183 142 -219 257 -84 270 31 542 263 618 27 9 74 13 132 10 74 -2 100 -8 148
-31z"/>
<path d="M8563 7945 c-90 -20 -193 -78 -273 -154 l-70 -66 0 34 c0 56 -36 118
-86 147 -101 59 -223 0 -244 -117 -11 -59 -11 -1142 -1 -1198 22 -114 133
-171 235 -122 27 14 54 37 68 59 23 37 23 41 28 462 5 417 5 426 28 475 53
115 150 176 292 183 150 7 233 -42 276 -161 16 -46 19 -98 24 -487 5 -431 5
-435 28 -472 26 -42 92 -78 143 -78 41 0 105 35 133 73 21 28 21 37 21 515 0
443 -2 493 -19 557 -25 96 -68 183 -116 238 -91 103 -289 151 -467 112z"/>
<path d="M11862 7945 c-88 -19 -193 -79 -272 -155 l-69 -65 -4 47 c-9 99 -84
165 -179 156 -55 -6 -92 -28 -125 -78 l-23 -33 0 -624 c0 -690 -3 -657 65
-709 74 -56 188 -35 237 44 23 37 23 41 28 462 5 420 5 426 29 477 13 29 44
72 70 96 66 62 125 82 241 82 81 0 102 -4 145 -25 30 -15 60 -41 77 -65 54
-78 58 -121 58 -566 0 -404 0 -406 23 -449 47 -89 163 -116 242 -56 67 51 65
37 65 538 0 408 -2 462 -19 546 -48 232 -160 351 -358 381 -92 14 -152 13
-231 -4z"/>
<path d="M5654 7916 c-17 -8 -44 -31 -60 -52 l-29 -37 0 -636 0 -636 24 -34
c27 -37 91 -71 136 -71 45 0 109 34 136 71 l24 34 0 637 c0 627 0 637 -21 664
-11 15 -32 37 -47 48 -34 25 -121 32 -163 12z"/>
<path d="M2260 3122 c-54 -27 -75 -73 -75 -167 0 -138 49 -189 184 -189 131 0
181 51 181 185 0 87 -19 133 -69 166 -44 30 -167 33 -221 5z"/>
</g>
</svg>
