<?xml version="1.0" encoding="UTF-8" standalone="no" ?>
<!DOCTYPE svg PUBLIC "-//W3C//DTD SVG 1.1//EN" "http://www.w3.org/Graphics/SVG/1.1/DTD/svg11.dtd">
<svg xmlns="http://www.w3.org/2000/svg" xmlns:xlink="http://www.w3.org/1999/xlink" version="1.1" width="1080" height="1080" viewBox="0 0 1080 1080" xml:space="preserve">
<desc>Created with Fabric.js 4.2.0</desc>
<defs>
</defs>
<rect x="0" y="0" width="100%" height="100%" fill="transparent"></rect>
<g transform="matrix(1 0 0 1 540 540)" id="795bf36e-3570-46d0-804b-307ac82618de"  >
</g>
<g transform="matrix(1 0 0 1 540 540)" id="22a5c947-2a77-4aaf-bb9a-473c6e2bdd5f"  >
<rect style="stroke: none; stroke-width: 1; stroke-dasharray: none; stroke-linecap: butt; stroke-dashoffset: 0; stroke-linejoin: miter; stroke-miterlimit: 4; fill: rgb(255,255,255); fill-opacity: 0; fill-rule: nonzero; opacity: 1;" vector-effect="non-scaling-stroke"  x="-540" y="-540" rx="0" ry="0" width="1080" height="1080" />
</g>
<g transform="matrix(1.27 0 0 1.27 540 540)"  >
<g style="" vector-effect="non-scaling-stroke"   >
		<g transform="matrix(9.24 0 0 9.24 -37.02 39.93)" clip-path="url(#CLIPPATH_87)"  >
<clipPath id="CLIPPATH_87" >
	<path transform="matrix(1 0 0 1 0.03 -0.02) translate(-183.36, -163.91)" d="M 144.355469 127.164062 L 222.355469 127.164062 L 222.355469 200.664062 L 144.355469 200.664062 Z M 144.355469 127.164062" stroke-linecap="round" />
</clipPath>
<path style="stroke: none; stroke-width: 1; stroke-dasharray: none; stroke-linecap: butt; stroke-dashoffset: 0; stroke-linejoin: miter; stroke-miterlimit: 4; fill: rgb(168,81,161); fill-rule: nonzero; opacity: 1;" vector-effect="non-scaling-stroke"  transform=" translate(-183.33, -163.94)" d="M 180.59375 200.425781 C 179.816406 200.351562 179.035156 200.28125 178.328125 200.210938 C 177.480469 200.066406 176.628906 199.925781 175.78125 199.78125 C 174.929688 199.640625 174.011719 199.425781 173.160156 199.214844 C 172.3125 199 171.535156 198.714844 170.683594 198.5 C 169.835938 198.285156 169.054688 198.003906 168.277344 197.644531 C 167.5 197.289062 166.722656 197.003906 165.941406 196.648438 C 164.3125 195.9375 162.828125 195.082031 161.269531 194.15625 C 159.714844 193.230469 158.296875 192.160156 156.953125 191.019531 C 155.960938 190.167969 154.972656 189.3125 154.050781 188.386719 C 153.625 187.957031 153.132812 187.460938 152.707031 187.03125 C 152.28125 186.605469 151.855469 186.035156 151.433594 185.605469 L 151.503906 185.679688 C 150.867188 184.964844 150.230469 184.253906 149.664062 183.542969 C 149.097656 182.828125 148.601562 182.046875 148.175781 181.261719 C 147.75 180.40625 147.328125 179.550781 146.972656 178.695312 C 146.617188 177.84375 146.335938 177.058594 146.125 176.203125 C 145.558594 174.421875 145.0625 172.570312 144.777344 170.71875 C 144.636719 169.792969 144.496094 168.9375 144.425781 168.011719 C 144.355469 167.085938 144.355469 166.089844 144.355469 165.164062 C 144.355469 163.382812 144.425781 161.53125 144.566406 159.75 C 144.707031 157.894531 145.0625 156.117188 145.558594 154.335938 C 146.054688 152.554688 146.691406 150.84375 147.398438 149.207031 C 147.75 148.421875 148.175781 147.636719 148.671875 146.855469 C 149.167969 146.070312 149.519531 145.359375 150.015625 144.574219 C 151.007812 143.078125 152.140625 141.582031 153.34375 140.230469 C 154.476562 138.804688 155.820312 137.59375 157.308594 136.527344 C 158.085938 135.957031 158.863281 135.457031 159.644531 134.957031 C 160.421875 134.460938 161.199219 134.105469 161.976562 133.746094 C 163.535156 132.964844 165.164062 132.179688 166.863281 131.539062 C 168.5625 130.898438 170.257812 130.328125 172.027344 129.902344 C 172.878906 129.6875 173.796875 129.402344 174.71875 129.257812 C 175.640625 129.117188 176.488281 128.902344 177.335938 128.691406 C 178.1875 128.476562 179.179688 128.261719 180.097656 128.121094 C 181.019531 127.976562 181.9375 127.761719 182.789062 127.691406 C 184.558594 127.40625 186.328125 127.335938 188.097656 127.40625 C 190.007812 127.40625 191.917969 127.621094 193.757812 127.976562 C 195.527344 128.332031 197.296875 128.902344 198.925781 129.617188 L 201.542969 130.753906 L 204.09375 131.894531 C 204.941406 132.25 205.722656 132.609375 206.570312 133.035156 C 207.417969 133.460938 208.199219 133.890625 208.976562 134.386719 C 210.535156 135.386719 211.878906 136.527344 213.152344 137.878906 C 213.789062 138.519531 214.355469 139.234375 214.921875 139.945312 C 215.488281 140.65625 216.054688 141.371094 216.550781 142.152344 C 217.046875 142.9375 217.46875 143.648438 217.894531 144.433594 C 218.320312 145.214844 218.746094 146.070312 219.167969 146.925781 C 219.382812 147.351562 219.59375 147.78125 219.804688 148.28125 C 220.019531 148.777344 220.160156 149.0625 220.300781 149.417969 C 220.441406 149.777344 220.65625 150.273438 220.796875 150.703125 C 220.9375 151.128906 221.078125 151.554688 221.222656 151.984375 C 221.503906 152.839844 221.71875 153.765625 221.859375 154.621094 C 222 155.546875 222.140625 156.472656 222.210938 157.398438 C 222.355469 159.25 222.285156 161.03125 222.285156 162.882812 C 222.285156 163.808594 222.285156 164.734375 222.210938 165.660156 C 222.140625 166.585938 222.070312 167.585938 221.859375 168.511719 C 221.859375 168.4375 221.859375 168.4375 221.859375 168.367188 C 221.789062 168.796875 221.644531 169.222656 221.574219 169.648438 C 221.503906 170.078125 221.363281 170.433594 221.222656 170.859375 L 221.222656 170.933594 C 220.796875 172.070312 220.300781 173.140625 219.804688 174.210938 C 219.3125 175.277344 218.816406 176.347656 218.320312 177.34375 L 218.390625 177.273438 C 218.320312 177.34375 218.320312 177.484375 218.25 177.558594 C 218.179688 177.628906 218.179688 177.699219 218.105469 177.84375 L 218.105469 177.769531 L 218.105469 177.984375 C 217.328125 179.695312 216.335938 181.261719 215.277344 182.828125 C 214.992188 183.183594 214.78125 183.542969 214.496094 183.898438 C 214.214844 184.253906 213.859375 184.679688 213.578125 185.039062 C 212.941406 185.75 212.234375 186.390625 211.59375 187.03125 C 210.109375 188.457031 208.550781 189.882812 206.996094 191.234375 C 205.648438 192.445312 204.234375 193.515625 202.746094 194.582031 C 201.261719 195.652344 199.632812 196.648438 198.003906 197.503906 C 197.582031 197.71875 197.15625 197.929688 196.730469 198.074219 C 196.308594 198.214844 195.882812 198.429688 195.386719 198.570312 C 194.464844 198.855469 193.546875 199.140625 192.625 199.355469 C 190.855469 199.78125 189.085938 200.066406 187.246094 200.210938 C 186.113281 200.351562 184.980469 200.425781 183.847656 200.425781 L 183.777344 200.425781 C 183.636719 200.496094 183.496094 200.496094 183.355469 200.496094 L 181.867188 200.496094 C 181.371094 200.425781 180.949219 200.425781 180.59375 200.425781 Z M 180.59375 200.425781" stroke-linecap="round" />
</g>
		<g transform="matrix(9.24 0 0 9.24 38.63 -14.79)" clip-path="url(#CLIPPATH_88)"  >
<clipPath id="CLIPPATH_88" >
	<path transform="matrix(1 0 0 1 -0.03 -0.07) translate(-191.4, -157.95)" d="M 173.796875 128 L 209 128 L 209 187.890625 L 173.796875 187.890625 Z M 173.796875 128" stroke-linecap="round" />
</clipPath>
<path style="stroke: none; stroke-width: 1; stroke-dasharray: none; stroke-linecap: butt; stroke-dashoffset: 0; stroke-linejoin: miter; stroke-miterlimit: 4; fill: rgb(255,255,255); fill-rule: nonzero; opacity: 1;" vector-effect="non-scaling-stroke"  transform=" translate(-191.43, -158.02)" d="M 194.082031 140.03125 C 194.699219 138.609375 195.304688 137.316406 195.40625 135.796875 C 195.574219 133.230469 196.40625 130.890625 198.230469 128.992188 C 198.679688 128.527344 199.175781 127.914062 199.863281 128.269531 C 200.535156 128.613281 200.390625 129.394531 200.289062 130.035156 C 199.929688 132.320312 198.984375 134.4375 197.363281 136 C 195.433594 137.867188 194.722656 140.199219 194.097656 142.605469 C 193.363281 145.445312 192.773438 148.324219 192.164062 151.199219 C 191.808594 152.867188 191.476562 154.550781 191.414062 156.578125 C 192.359375 155.1875 193.398438 153.871094 194.523438 152.621094 C 194.890625 152.222656 194.726562 151.820312 194.628906 151.40625 C 194.039062 148.886719 194.40625 146.503906 195.679688 144.269531 C 195.949219 143.796875 196.3125 142.945312 196.886719 142.78125 C 197.726562 142.535156 197.957031 143.789062 197.980469 144.382812 C 198.050781 146.097656 197.742188 147.738281 197.113281 149.328125 C 197.003906 149.582031 196.945312 149.84375 196.941406 150.121094 C 197.992188 149.269531 199.335938 148.914062 200.242188 147.84375 C 201.085938 146.847656 202.144531 146.070312 203.316406 145.503906 C 204.855469 144.757812 206.476562 144.355469 208.195312 144.738281 C 208.933594 144.902344 209.042969 145.121094 208.871094 145.824219 C 208.671875 146.640625 208.066406 147.140625 207.441406 147.609375 C 206.015625 148.667969 204.371094 149.179688 202.640625 149.394531 C 201.792969 149.5 200.925781 149.644531 200.066406 149.402344 C 199.289062 149.179688 198.753906 149.726562 198.1875 150.074219 C 196.820312 150.925781 195.683594 152.070312 194.65625 153.292969 C 193.691406 154.441406 192.671875 155.539062 191.90625 156.871094 C 191.175781 158.136719 190.988281 159.433594 190.96875 160.992188 C 191.945312 160.328125 192.488281 159.316406 193.523438 158.960938 C 194.542969 158.613281 195.539062 158.160156 196.625 158.070312 C 197.699219 157.984375 198.800781 157.878906 199.679688 158.789062 C 199.835938 159.5625 199.445312 160.121094 198.882812 160.558594 C 196.835938 162.152344 194.617188 163.191406 191.929688 162.667969 C 191.757812 162.640625 191.585938 162.628906 191.414062 162.628906 C 191.289062 162.632812 191.164062 162.644531 191.039062 162.660156 C 190.59375 163.566406 190.375 168.726562 190.714844 170.992188 C 191.488281 169.835938 192.132812 168.734375 193.015625 167.824219 C 193.953125 166.859375 194.921875 165.933594 196.351562 165.765625 C 197.691406 165.605469 198.539062 166.375 197.761719 167.710938 C 196.40625 170.054688 194.625 171.933594 192.046875 172.945312 C 191.644531 173.101562 191.242188 173.25 190.839844 173.40625 C 190.800781 173.421875 190.777344 173.464844 190.621094 173.605469 C 190.554688 175.125 190.78125 176.746094 190.867188 178.371094 C 190.949219 179.96875 191.195312 181.550781 191.464844 183.125 C 191.734375 184.699219 192.019531 186.269531 192.101562 187.871094 C 191.59375 187.671875 191.609375 187.257812 191.539062 186.90625 C 191.128906 184.738281 190.742188 182.570312 190.449219 180.382812 C 190.1875 178.394531 189.269531 176.601562 188.507812 174.769531 C 188.324219 174.332031 188.105469 173.910156 187.859375 173.503906 C 187.59375 173.066406 187.25 172.921875 186.796875 173.304688 C 185.429688 174.449219 183.757812 174.914062 182.097656 175.390625 C 180.644531 175.808594 179.1875 175.71875 177.75 175.3125 C 177.28125 175.179688 176.703125 174.945312 176.402344 174.539062 C 175.800781 173.734375 177.105469 172.820312 177.683594 172.464844 C 179.949219 171.074219 182.320312 170.347656 184.953125 171.386719 C 185.511719 171.605469 186.085938 171.777344 186.835938 172.03125 C 186.640625 171.214844 186.175781 170.703125 185.757812 170.222656 C 184.96875 169.308594 184.144531 168.414062 183.25 167.605469 C 182.289062 166.734375 181.160156 166.136719 179.933594 165.648438 C 177.609375 164.71875 175.546875 163.398438 174.375 161.03125 C 174.164062 160.597656 174 160.160156 173.9375 159.6875 C 173.796875 158.582031 174.605469 157.882812 175.667969 158.488281 C 176.800781 159.140625 177.800781 159.957031 178.664062 160.9375 C 179.839844 162.261719 180.914062 163.675781 181.601562 165.332031 C 181.6875 165.542969 181.789062 165.726562 181.957031 165.855469 C 183.054688 166.679688 184.128906 167.53125 185.195312 168.726562 C 185.289062 167.820312 184.957031 167.25 184.859375 166.640625 C 184.460938 164.160156 184.730469 161.816406 186.230469 159.71875 C 186.578125 159.234375 187.023438 158.800781 187.550781 159.332031 C 187.960938 159.75 188.148438 160.285156 188.277344 160.832031 C 188.789062 163.0625 188.589844 165.21875 187.515625 167.257812 C 187.09375 168.058594 186.613281 168.828125 186.128906 169.667969 C 187.613281 171.707031 188.914062 173.835938 189.851562 176.1875 C 189.839844 172.109375 189.742188 168.058594 190.019531 164.011719 C 190.296875 159.964844 190.761719 155.941406 191.242188 151.867188 C 190.28125 151.636719 189.414062 151.414062 188.558594 151.117188 C 186.761719 150.492188 185.582031 149.28125 184.761719 147.621094 C 184.414062 146.921875 184.058594 146.226562 183.886719 145.460938 C 183.734375 144.796875 183.992188 144.457031 184.65625 144.453125 C 185.28125 144.453125 185.835938 144.703125 186.367188 145 C 188.238281 146.054688 189.929688 147.300781 190.910156 149.300781 C 191.03125 149.53125 191.167969 149.75 191.316406 149.964844 C 191.363281 150.023438 191.414062 150.082031 191.472656 150.132812 C 191.648438 150.144531 191.738281 150.050781 191.765625 149.929688 C 192.238281 147.820312 192.6875 145.703125 193.179688 143.601562 C 193.324219 142.984375 193.179688 142.570312 192.753906 142.097656 C 191.511719 140.71875 190.328125 139.277344 189.542969 137.570312 C 189.085938 136.582031 188.78125 135.554688 188.835938 134.441406 C 188.847656 133.949219 189.007812 133.507812 189.3125 133.125 C 189.882812 132.410156 190.640625 132.335938 191.34375 132.941406 C 191.773438 133.316406 192.074219 133.792969 192.308594 134.308594 C 193.023438 135.890625 193.652344 137.5 193.773438 139.257812 C 193.785156 139.46875 193.753906 139.691406 194.082031 140.03125 Z M 176.988281 174.101562 C 179 175.71875 184.316406 174.882812 186.304688 172.640625 C 183.5 170.652344 178.496094 171.433594 176.988281 174.101562 Z M 184.636719 145.101562 C 184.460938 148.050781 188.105469 151.414062 190.976562 151.046875 C 190.472656 148.417969 187.15625 145.265625 184.636719 145.101562 Z M 191.179688 172.414062 C 193.835938 171.964844 197.246094 168.738281 197.445312 166.488281 C 196.863281 166.234375 196.3125 166.292969 195.742188 166.589844 C 193.707031 167.644531 192.355469 169.335938 191.335938 171.332031 C 191.1875 171.625 191.027344 171.953125 191.179688 172.414062 Z M 193.210938 141.660156 C 193.273438 140.054688 193.144531 138.761719 192.796875 137.515625 C 192.414062 136.148438 192.015625 134.769531 191.113281 133.617188 C 190.847656 133.28125 190.519531 133.089844 190.105469 133.195312 C 189.730469 133.292969 189.578125 133.636719 189.496094 133.976562 C 189.328125 134.664062 189.433594 135.351562 189.613281 136.023438 C 190.191406 138.179688 191.601562 139.804688 193.210938 141.660156 Z M 199.097656 159.269531 C 196.933594 157.800781 192.296875 159.375 191.535156 161.835938 C 193.71875 162.796875 198.167969 161.40625 199.097656 159.269531 Z M 187.101562 159.875 C 185.347656 160.988281 184.710938 165.785156 185.964844 168.171875 C 188.074219 166.511719 188.75 161.574219 187.101562 159.878906 Z M 180.71875 165.1875 C 180.570312 164.207031 179.976562 163.507812 179.480469 162.773438 C 178.515625 161.332031 177.332031 160.082031 175.835938 159.171875 C 175.5 158.96875 175.132812 158.761719 174.757812 159.050781 C 174.351562 159.359375 174.5625 159.746094 174.675781 160.113281 C 175.589844 163.101562 178.066406 164.234375 180.71875 165.191406 Z M 208.210938 145.59375 C 206.230469 144.429688 201.3125 146.753906 200.570312 148.652344 C 203.34375 149.316406 207.484375 147.660156 208.210938 145.59375 Z M 195.964844 136.285156 C 196.152344 136.261719 196.261719 136.28125 196.3125 136.234375 C 198.140625 134.496094 199.273438 132.363281 199.820312 129.910156 C 199.910156 129.5 200.09375 128.738281 199.269531 128.851562 C 198.230469 128.992188 196.144531 133.347656 195.964844 136.285156 Z M 197.046875 143.546875 C 195.179688 145.472656 194.375 149.332031 195.40625 151.09375 C 197.054688 149.035156 197.902344 145.292969 197.046875 143.546875 Z M 197.046875 143.546875" stroke-linecap="round" />
</g>
		<g transform="matrix(9.24 0 0 9.24 36.77 -17.68)" clip-path="url(#CLIPPATH_89)"  >
<clipPath id="CLIPPATH_89" >
	<path transform="matrix(1 0 0 1 0 0) translate(-191.29, -157.73)" d="M 152.289062 118.730469 L 230.289062 118.730469 L 230.289062 196.730469 L 152.289062 196.730469 Z M 152.289062 118.730469" stroke-linecap="round" />
</clipPath>
<path style="stroke: none; stroke-width: 1; stroke-dasharray: none; stroke-linecap: butt; stroke-dashoffset: 0; stroke-linejoin: miter; stroke-miterlimit: 4; fill: rgb(86,4,79); fill-rule: nonzero; opacity: 1;" vector-effect="non-scaling-stroke"  transform=" translate(-191.29, -157.73)" d="M 198.816406 195.980469 C 199.316406 195.980469 199.746094 195.980469 200.246094 195.910156 C 200.746094 195.835938 201.386719 195.765625 201.886719 195.625 C 202.386719 195.480469 203.027344 195.339844 203.597656 195.195312 L 203.527344 195.195312 C 204.167969 195.050781 204.8125 194.839844 205.453125 194.625 C 205.738281 194.554688 206.023438 194.410156 206.3125 194.339844 L 207.167969 193.980469 C 207.453125 193.839844 207.738281 193.769531 207.953125 193.625 C 208.238281 193.484375 208.523438 193.339844 208.808594 193.195312 C 209.378906 192.839844 210.023438 192.484375 210.59375 192.125 C 211.164062 191.769531 211.804688 191.414062 212.449219 191.054688 L 213.304688 190.484375 L 214.160156 189.984375 C 214.804688 189.628906 215.445312 189.199219 216.085938 188.699219 C 216.371094 188.488281 216.585938 188.273438 216.871094 188.058594 L 217.585938 187.417969 C 218.085938 186.988281 218.515625 186.558594 219.011719 186.132812 C 219.226562 185.917969 219.441406 185.703125 219.65625 185.488281 C 219.871094 185.277344 220.082031 184.992188 220.296875 184.777344 C 220.65625 184.347656 220.941406 183.847656 221.296875 183.421875 C 221.441406 183.136719 221.652344 182.777344 221.796875 182.492188 C 221.9375 182.207031 222.152344 181.921875 222.296875 181.636719 C 222.652344 181.066406 223.007812 180.421875 223.4375 179.851562 L 223.867188 179.136719 L 224.367188 178.351562 C 224.578125 178.066406 224.722656 177.78125 224.9375 177.496094 L 225.4375 176.710938 C 225.578125 176.496094 225.648438 176.285156 225.792969 176.070312 C 225.9375 175.855469 226.007812 175.640625 226.078125 175.425781 C 226.292969 174.929688 226.507812 174.429688 226.71875 173.929688 L 226.792969 173.785156 C 226.933594 173.429688 227.078125 173.074219 227.21875 172.714844 C 227.363281 172.359375 227.433594 172.003906 227.578125 171.644531 L 227.863281 170.644531 C 227.933594 170.289062 228.078125 169.933594 228.148438 169.574219 C 228.21875 169.21875 228.289062 168.933594 228.363281 168.578125 C 228.363281 168.363281 228.433594 168.148438 228.503906 167.933594 C 228.503906 167.863281 228.503906 167.792969 228.574219 167.71875 C 228.648438 167.648438 228.648438 167.578125 228.648438 167.507812 C 228.71875 167.222656 228.789062 166.863281 228.789062 166.578125 C 228.789062 166.292969 228.933594 166.078125 228.933594 165.792969 C 228.933594 165.722656 228.933594 165.652344 228.933594 165.578125 L 228.933594 165.652344 C 228.933594 165.652344 228.933594 165.578125 228.933594 165.578125 C 228.933594 165.4375 229.003906 165.292969 229.003906 165.152344 C 229.003906 165.152344 229.003906 165.078125 229.003906 165.078125 C 229.003906 165.078125 229.003906 165.007812 229.003906 165.007812 C 229.003906 165.007812 229.003906 164.9375 229.003906 164.867188 C 229.003906 164.792969 229.003906 164.792969 229.003906 164.722656 L 229.003906 164.792969 C 229.003906 164.722656 229.074219 164.582031 229.074219 164.507812 C 229.074219 164.4375 229.148438 164.296875 229.21875 164.222656 C 229.289062 164.007812 229.433594 163.9375 229.644531 163.9375 L 229.71875 163.9375 C 229.71875 163.722656 229.789062 163.582031 229.789062 163.367188 L 229.789062 163.4375 C 229.859375 163.222656 229.859375 162.9375 229.859375 162.652344 C 229.859375 162.367188 229.859375 162.082031 229.859375 161.796875 C 229.859375 161.226562 229.859375 160.65625 229.859375 160.085938 C 229.859375 159.15625 229.859375 158.300781 229.789062 157.371094 C 229.71875 156.445312 229.644531 155.515625 229.574219 154.589844 C 229.433594 153.519531 229.289062 152.449219 229.074219 151.378906 C 229.003906 150.878906 228.863281 150.378906 228.789062 149.808594 C 228.71875 149.238281 228.574219 148.738281 228.433594 148.238281 L 228.433594 148.308594 C 228.21875 147.597656 228.078125 146.953125 227.863281 146.238281 C 227.648438 145.527344 227.363281 144.8125 227.078125 144.097656 L 227.078125 144.027344 L 226.933594 143.742188 L 226.863281 143.671875 C 226.792969 143.527344 226.71875 143.386719 226.648438 143.171875 C 226.507812 142.886719 226.363281 142.527344 226.222656 142.242188 C 225.648438 141.03125 225.007812 139.890625 224.367188 138.675781 C 224.082031 138.175781 223.792969 137.746094 223.507812 137.25 C 223.367188 137.035156 223.222656 136.820312 223.082031 136.605469 C 222.9375 136.390625 222.722656 136.105469 222.511719 135.820312 C 222.011719 135.105469 221.441406 134.464844 220.867188 133.75 C 220.582031 133.394531 220.296875 133.039062 220.011719 132.679688 C 219.726562 132.324219 219.441406 132.039062 219.085938 131.683594 C 218.300781 130.898438 217.441406 130.113281 216.660156 129.398438 C 216.230469 129.042969 215.875 128.683594 215.445312 128.328125 C 215.015625 127.972656 214.589844 127.613281 214.160156 127.257812 L 214.019531 127.113281 L 212.804688 126.1875 C 212.375 125.902344 211.949219 125.617188 211.519531 125.332031 L 210.09375 124.546875 L 208.738281 123.902344 C 208.238281 123.617188 207.738281 123.332031 207.238281 123.117188 L 205.667969 122.40625 C 205.382812 122.261719 205.097656 122.191406 204.742188 122.046875 C 204.382812 121.90625 203.957031 121.761719 203.597656 121.691406 C 202.957031 121.476562 202.3125 121.261719 201.671875 121.121094 L 201.742188 121.121094 C 200.816406 120.835938 199.886719 120.621094 198.890625 120.40625 C 197.890625 120.191406 197.035156 120.050781 196.105469 119.90625 L 196.175781 119.90625 C 195.675781 119.835938 195.25 119.765625 194.75 119.765625 C 194.25 119.765625 193.75 119.691406 193.25 119.621094 L 191.824219 119.550781 C 191.324219 119.550781 190.894531 119.480469 190.398438 119.480469 L 190.46875 119.480469 C 189.824219 119.480469 189.183594 119.480469 188.46875 119.480469 C 187.757812 119.480469 187.042969 119.480469 186.328125 119.550781 C 185.617188 119.621094 184.902344 119.621094 184.1875 119.691406 C 183.832031 119.691406 183.472656 119.765625 183.117188 119.765625 C 182.761719 119.765625 182.402344 119.835938 182.117188 119.835938 C 181.476562 119.90625 180.835938 120.050781 180.191406 120.191406 C 179.550781 120.335938 178.90625 120.476562 178.195312 120.621094 L 178.265625 120.621094 C 177.550781 120.835938 176.765625 121.046875 176.050781 121.261719 C 175.339844 121.476562 174.625 121.761719 173.984375 122.046875 L 174.054688 122.046875 C 173.125 122.476562 172.128906 122.902344 171.199219 123.332031 C 170.773438 123.546875 170.273438 123.832031 169.84375 124.046875 C 169.414062 124.261719 168.988281 124.546875 168.558594 124.757812 C 168.132812 124.972656 167.847656 125.1875 167.558594 125.402344 C 167.273438 125.617188 166.917969 125.832031 166.632812 126.042969 C 166.347656 126.257812 165.917969 126.542969 165.5625 126.828125 C 165.207031 127.113281 164.847656 127.328125 164.5625 127.542969 C 164.277344 127.757812 163.992188 127.972656 163.777344 128.257812 C 163.5625 128.542969 163.207031 128.757812 162.992188 128.96875 C 162.421875 129.46875 161.921875 129.96875 161.351562 130.539062 C 160.78125 131.109375 160.425781 131.539062 159.925781 132.109375 C 159.425781 132.679688 158.996094 133.25 158.570312 133.824219 C 158.070312 134.464844 157.570312 135.105469 157.210938 135.820312 C 156.855469 136.464844 156.5 137.035156 156.214844 137.675781 L 155.714844 138.675781 C 155.214844 138.816406 155.070312 139.105469 154.929688 139.460938 C 154.644531 140.175781 154.359375 140.886719 154.144531 141.671875 C 153.929688 142.386719 153.789062 143.101562 153.644531 143.8125 C 153.5 144.527344 153.359375 145.242188 153.289062 145.953125 C 153.214844 146.667969 153.144531 147.238281 153.074219 147.882812 C 153.003906 148.523438 152.929688 149.09375 152.859375 149.664062 C 152.929688 150.949219 152.929688 152.09375 152.929688 153.234375 C 152.929688 153.660156 152.929688 154.089844 152.929688 154.519531 C 152.929688 154.945312 152.929688 155.445312 152.929688 155.875 C 152.929688 156.730469 153.003906 157.585938 153.074219 158.441406 C 153.144531 159.085938 153.289062 159.726562 153.429688 160.371094 C 153.574219 161.011719 153.644531 161.65625 153.859375 162.296875 C 154.144531 163.222656 154.359375 164.222656 154.714844 165.152344 C 155 166.078125 155.285156 166.933594 155.644531 167.792969 C 156 168.648438 156.429688 169.503906 156.925781 170.289062 C 157.210938 170.71875 157.5 171.144531 157.785156 171.574219 L 158.640625 173 C 158.925781 173.429688 159.210938 173.929688 159.496094 174.355469 C 159.78125 174.785156 160.140625 175.214844 160.425781 175.640625 C 160.851562 176.210938 161.351562 176.785156 161.78125 177.28125 C 162.207031 177.78125 162.707031 178.351562 163.207031 178.925781 C 163.351562 179.066406 163.492188 179.210938 163.707031 179.351562 C 163.847656 179.496094 164.0625 179.636719 164.207031 179.78125 L 164.707031 180.207031 L 164.847656 180.351562 C 165.277344 180.707031 165.703125 181.066406 166.132812 181.421875 C 166.5625 181.777344 166.988281 182.207031 167.417969 182.5625 C 167.988281 182.992188 168.632812 183.492188 169.203125 183.917969 L 170.199219 184.703125 C 170.488281 184.917969 170.84375 185.132812 171.128906 185.417969 C 171.414062 185.703125 171.769531 185.847656 172.128906 186.0625 L 173.125 186.773438 C 173.769531 187.273438 174.484375 187.703125 175.125 188.128906 C 175.554688 188.414062 175.980469 188.699219 176.480469 188.988281 L 177.835938 189.84375 C 178.265625 190.058594 178.691406 190.34375 179.121094 190.554688 L 180.40625 191.269531 C 181.261719 191.769531 182.191406 192.125 183.046875 192.554688 L 184.757812 193.339844 C 185.117188 193.484375 185.472656 193.625 185.902344 193.769531 L 187.042969 194.195312 C 187.472656 194.339844 187.828125 194.480469 188.253906 194.625 C 188.46875 194.695312 188.613281 194.765625 188.828125 194.765625 L 189.398438 194.980469 L 190.253906 195.195312 C 190.609375 195.265625 190.894531 195.339844 191.183594 195.480469 L 192.109375 195.695312 C 192.394531 195.765625 192.679688 195.835938 193.039062 195.835938 C 193.75 195.910156 194.394531 195.980469 195.105469 196.050781 C 195.464844 196.121094 195.75 196.121094 196.105469 196.121094 C 196.460938 196.121094 196.820312 196.195312 197.175781 196.195312 L 197.320312 196.195312 C 197.746094 195.980469 198.316406 195.980469 198.816406 195.980469 Z M 197.246094 196.695312 C 196.820312 196.695312 196.460938 196.695312 196.035156 196.621094 C 195.675781 196.621094 195.320312 196.550781 194.964844 196.550781 L 193.820312 196.410156 L 192.75 196.265625 L 192.179688 196.195312 C 191.964844 196.195312 191.824219 196.121094 191.609375 196.050781 L 190.539062 195.765625 C 190.183594 195.695312 189.753906 195.550781 189.398438 195.480469 L 188.898438 195.339844 C 188.828125 195.339844 188.753906 195.265625 188.683594 195.265625 L 188.398438 195.195312 C 187.96875 195.050781 187.542969 194.910156 187.183594 194.765625 L 186.042969 194.339844 C 185.617188 194.195312 185.1875 194.054688 184.757812 193.910156 C 184.542969 193.839844 184.402344 193.769531 184.1875 193.695312 L 183.546875 193.410156 C 182.832031 193.125 182.117188 192.769531 181.40625 192.484375 C 181.046875 192.339844 180.691406 192.125 180.335938 191.914062 L 179.265625 191.339844 L 178.195312 190.769531 C 177.835938 190.628906 177.480469 190.414062 177.195312 190.199219 L 176.195312 189.628906 L 175.054688 188.84375 C 174.410156 188.414062 173.699219 187.988281 173.125 187.558594 L 172.128906 186.847656 C 171.769531 186.632812 171.484375 186.347656 171.128906 186.132812 C 170.773438 185.917969 170.488281 185.703125 170.128906 185.417969 C 169.773438 185.132812 169.488281 184.917969 169.203125 184.703125 C 168.558594 184.207031 167.988281 183.777344 167.347656 183.277344 L 166.5625 182.707031 C 166.277344 182.492188 166.0625 182.277344 165.777344 182.0625 C 165.277344 181.636719 164.777344 181.207031 164.277344 180.78125 L 164.347656 180.851562 L 164.207031 180.707031 C 163.847656 180.496094 163.5625 180.207031 163.207031 179.921875 C 162.921875 179.710938 162.636719 179.425781 162.351562 179.136719 C 162.066406 178.851562 161.851562 178.566406 161.566406 178.210938 L 160.78125 177.355469 C 160.28125 176.785156 159.78125 176.140625 159.355469 175.570312 C 158.925781 175 158.496094 174.285156 158.070312 173.644531 C 157.640625 173 157.210938 172.214844 156.785156 171.574219 C 156.570312 171.21875 156.355469 170.933594 156.140625 170.574219 C 155.929688 170.21875 155.785156 169.859375 155.570312 169.503906 C 155.355469 169.148438 155.214844 168.789062 155.070312 168.433594 C 154.929688 168.078125 154.785156 167.71875 154.644531 167.363281 C 154.359375 166.648438 154.144531 165.9375 153.929688 165.222656 C 153.714844 164.507812 153.5 163.652344 153.214844 162.867188 C 153.144531 162.511719 153.003906 162.082031 152.929688 161.65625 C 152.859375 161.226562 152.859375 160.871094 152.789062 160.511719 C 152.644531 159.726562 152.503906 159.015625 152.429688 158.230469 C 152.359375 157.445312 152.289062 156.660156 152.289062 155.945312 C 152.289062 155.230469 152.289062 154.375 152.289062 153.589844 C 152.289062 152.804688 152.289062 152.164062 152.359375 151.449219 C 152.429688 150.734375 152.429688 149.878906 152.503906 149.164062 C 152.574219 148.453125 152.644531 147.523438 152.789062 146.738281 C 152.929688 145.953125 153.003906 145.097656 153.144531 144.3125 C 153.289062 143.527344 153.429688 142.671875 153.644531 141.886719 C 153.714844 141.53125 153.859375 141.101562 154 140.746094 C 154.144531 140.386719 154.285156 139.960938 154.429688 139.601562 C 154.574219 139.246094 154.714844 138.890625 154.929688 138.53125 C 155.144531 138.175781 155.285156 137.820312 155.5 137.460938 C 155.855469 136.75 156.214844 136.105469 156.640625 135.464844 C 157 134.820312 157.425781 134.179688 157.855469 133.609375 C 158.355469 132.964844 158.855469 132.394531 159.355469 131.753906 C 159.851562 131.183594 160.351562 130.613281 160.851562 130.039062 L 161.707031 129.183594 L 162.566406 128.328125 C 162.851562 128.042969 163.136719 127.757812 163.492188 127.542969 C 163.777344 127.257812 164.136719 127.042969 164.492188 126.757812 C 164.847656 126.472656 165.132812 126.328125 165.492188 126.042969 L 166.488281 125.332031 C 167.0625 124.902344 167.703125 124.472656 168.417969 124.117188 C 169.128906 123.761719 169.773438 123.332031 170.488281 122.976562 C 170.84375 122.761719 171.199219 122.617188 171.484375 122.40625 C 171.769531 122.191406 172.199219 122.046875 172.554688 121.90625 C 173.269531 121.546875 173.984375 121.261719 174.769531 120.976562 C 175.554688 120.691406 176.265625 120.476562 177.050781 120.265625 C 177.835938 120.050781 178.550781 119.835938 179.335938 119.621094 C 180.121094 119.40625 180.835938 119.335938 181.617188 119.195312 C 182.402344 119.050781 183.1875 118.980469 184.046875 118.90625 L 186.398438 118.765625 C 187.042969 118.835938 187.828125 118.765625 188.613281 118.765625 C 189.398438 118.765625 190.109375 118.765625 190.894531 118.765625 C 191.679688 118.765625 192.464844 118.835938 193.324219 118.90625 C 194.179688 118.980469 194.890625 119.050781 195.675781 119.121094 C 196.460938 119.195312 197.246094 119.335938 198.03125 119.480469 C 198.816406 119.621094 199.53125 119.765625 200.246094 119.976562 C 200.957031 120.191406 201.742188 120.335938 202.527344 120.621094 C 203.3125 120.90625 204.097656 121.121094 204.8125 121.335938 C 205.527344 121.546875 206.238281 121.90625 207.023438 122.261719 C 207.382812 122.40625 207.738281 122.546875 208.023438 122.761719 C 208.308594 122.976562 208.664062 123.117188 209.023438 123.332031 C 209.734375 123.761719 210.378906 124.117188 211.09375 124.472656 C 211.734375 124.832031 212.375 125.257812 213.019531 125.6875 C 213.445312 126.042969 213.945312 126.328125 214.375 126.6875 C 215.015625 127.1875 215.660156 127.6875 216.230469 128.183594 C 216.800781 128.683594 217.371094 129.253906 217.941406 129.753906 C 218.515625 130.253906 219.15625 130.824219 219.65625 131.46875 C 219.941406 131.753906 220.226562 132.039062 220.511719 132.394531 C 220.796875 132.753906 221.082031 133.039062 221.296875 133.394531 C 221.796875 134.035156 222.296875 134.609375 222.722656 135.179688 C 223.007812 135.535156 223.222656 135.890625 223.507812 136.25 C 223.722656 136.535156 223.9375 136.890625 224.082031 137.175781 C 224.507812 137.890625 224.9375 138.53125 225.292969 139.246094 C 225.648438 139.960938 226.078125 140.746094 226.433594 141.457031 C 226.71875 142.101562 227.078125 142.742188 227.292969 143.386719 L 227.292969 143.457031 C 227.292969 143.457031 227.292969 143.527344 227.292969 143.527344 L 227.433594 143.8125 L 227.433594 143.886719 C 227.503906 144.027344 227.503906 144.097656 227.578125 144.242188 C 227.648438 144.382812 227.71875 144.597656 227.789062 144.8125 C 227.933594 145.242188 228.078125 145.597656 228.21875 146.027344 C 228.433594 146.738281 228.648438 147.523438 228.863281 148.308594 C 229.003906 148.738281 229.074219 149.09375 229.148438 149.523438 C 229.21875 149.949219 229.289062 150.308594 229.359375 150.734375 C 229.503906 151.519531 229.644531 152.304688 229.789062 153.089844 C 229.933594 153.875 230.003906 154.660156 230.074219 155.375 C 230.144531 156.089844 230.21875 157.015625 230.21875 157.871094 C 230.21875 158.300781 230.289062 158.730469 230.289062 159.226562 C 230.289062 159.726562 230.289062 160.011719 230.289062 160.441406 L 230.289062 161.65625 C 230.289062 162.082031 230.289062 162.511719 230.21875 162.9375 C 230.144531 163.367188 230.144531 163.722656 230.074219 164.152344 C 230.003906 164.4375 229.933594 164.792969 229.859375 165.078125 C 229.789062 165.222656 229.644531 165.292969 229.503906 165.292969 C 229.433594 165.292969 229.359375 165.292969 229.359375 165.222656 L 229.359375 165.152344 C 229.359375 165.152344 229.359375 165.222656 229.359375 165.222656 L 229.359375 165.367188 C 229.359375 165.4375 229.289062 165.578125 229.289062 165.652344 C 229.289062 165.652344 229.289062 165.722656 229.289062 165.722656 L 229.289062 165.652344 C 229.289062 165.652344 229.289062 165.722656 229.289062 165.722656 C 229.289062 165.863281 229.21875 166.007812 229.21875 166.222656 C 229.21875 166.4375 229.148438 166.578125 229.148438 166.722656 C 229.148438 166.863281 229.074219 167.078125 229.074219 167.292969 C 229.003906 167.507812 229.003906 167.648438 228.933594 167.863281 C 228.933594 168.003906 228.863281 168.148438 228.863281 168.292969 C 228.789062 168.503906 228.789062 168.789062 228.71875 169.078125 C 228.648438 169.363281 228.574219 169.789062 228.503906 170.148438 C 228.433594 170.503906 228.363281 170.789062 228.21875 171.074219 L 228.21875 171.144531 C 228.078125 171.644531 228.003906 172.074219 227.792969 172.574219 C 227.71875 172.859375 227.578125 173.144531 227.503906 173.429688 C 227.433594 173.714844 227.292969 174 227.148438 174.285156 L 227.007812 174.570312 C 226.71875 175.214844 226.507812 175.855469 226.222656 176.425781 C 226.078125 176.710938 225.9375 176.996094 225.722656 177.28125 C 225.507812 177.570312 225.292969 177.925781 225.078125 178.210938 C 224.722656 178.78125 224.292969 179.351562 223.9375 179.996094 C 223.582031 180.636719 223.152344 181.28125 222.722656 181.921875 C 222.722656 181.992188 222.652344 182.0625 222.582031 182.136719 L 222.582031 182.0625 C 222.367188 182.421875 222.152344 182.777344 222.011719 183.136719 C 221.867188 183.492188 221.582031 183.847656 221.367188 184.207031 C 221.152344 184.5625 220.941406 184.847656 220.65625 185.132812 C 220.371094 185.417969 220.226562 185.703125 219.941406 185.988281 C 219.441406 186.488281 219.011719 186.917969 218.441406 187.34375 C 217.871094 187.84375 217.300781 188.414062 216.730469 188.84375 C 216.085938 189.34375 215.445312 189.84375 214.804688 190.269531 C 214.515625 190.484375 214.160156 190.628906 213.875 190.84375 C 213.589844 191.054688 213.304688 191.199219 212.949219 191.414062 C 212.304688 191.839844 211.734375 192.199219 211.09375 192.554688 C 210.734375 192.769531 210.378906 192.984375 210.09375 193.195312 L 209.308594 193.695312 C 209.023438 193.839844 208.664062 194.054688 208.378906 194.195312 C 208.09375 194.339844 207.738281 194.480469 207.382812 194.625 L 206.453125 194.980469 C 206.167969 195.125 205.8125 195.195312 205.453125 195.265625 C 204.742188 195.480469 204.027344 195.695312 203.3125 195.910156 C 202.601562 196.121094 201.886719 196.265625 201.171875 196.410156 C 200.886719 196.480469 200.53125 196.480469 200.246094 196.550781 C 199.960938 196.621094 199.601562 196.621094 199.246094 196.621094 C 198.675781 196.621094 198.03125 196.695312 197.460938 196.695312 Z M 197.246094 196.695312" stroke-linecap="round" />
</g>
</g>
</g>
</svg>