<?xml version="1.0" encoding="UTF-8"?>
<svg xmlns="http://www.w3.org/2000/svg" xmlns:xlink="http://www.w3.org/1999/xlink" width="240.75pt" height="141.750002pt" viewBox="0 0 240.75 141.750002" version="1.2">
<defs>
<clipPath id="clip1">
  <path d="M 0.0859375 0 L 240.414062 0 L 240.414062 141.5 L 0.0859375 141.5 Z M 0.0859375 0 "/>
</clipPath>
<clipPath id="clip2">
  <path d="M 154.050781 2 L 156 2 L 156 9 L 154.050781 9 Z M 154.050781 2 "/>
</clipPath>
<clipPath id="clip3">
  <path d="M 204.328125 59.304688 L 213.316406 59.304688 L 213.316406 71.09375 L 204.328125 71.09375 Z M 204.328125 59.304688 "/>
</clipPath>
<clipPath id="clip4">
  <path d="M 235 0 L 240.414062 0 L 240.414062 2 L 235 2 Z M 235 0 "/>
</clipPath>
<clipPath id="clip5">
  <path d="M 154.050781 14 L 169 14 L 169 31 L 154.050781 31 Z M 154.050781 14 "/>
</clipPath>
<clipPath id="clip6">
  <path d="M 154.050781 29 L 157 29 L 157 34 L 154.050781 34 Z M 154.050781 29 "/>
</clipPath>
<clipPath id="clip7">
  <path d="M 154.050781 41 L 161 41 L 161 51 L 154.050781 51 Z M 154.050781 41 "/>
</clipPath>
<clipPath id="clip8">
  <path d="M 230 7 L 240.414062 7 L 240.414062 17 L 230 17 Z M 230 7 "/>
</clipPath>
<clipPath id="clip9">
  <path d="M 154.050781 55 L 158 55 L 158 67 L 154.050781 67 Z M 154.050781 55 "/>
</clipPath>
<clipPath id="clip10">
  <path d="M 180.355469 62.300781 L 192 62.300781 L 192 71.09375 L 180.355469 71.09375 Z M 180.355469 62.300781 "/>
</clipPath>
<clipPath id="clip11">
  <path d="M 240 25 L 240.414062 25 L 240.414062 34 L 240 34 Z M 240 25 "/>
</clipPath>
<clipPath id="clip12">
  <path d="M 162.042969 64.632812 L 172 64.632812 L 172 71.09375 L 162.042969 71.09375 Z M 162.042969 64.632812 "/>
</clipPath>
<clipPath id="clip13">
  <path d="M 224.636719 65 L 229.632812 65 L 229.632812 71.09375 L 224.636719 71.09375 Z M 224.636719 65 "/>
</clipPath>
<clipPath id="clip14">
  <path d="M 233 50 L 240.414062 50 L 240.414062 67 L 233 67 Z M 233 50 "/>
</clipPath>
<clipPath id="clip15">
  <path d="M 236 63 L 240.414062 63 L 240.414062 68 L 236 68 Z M 236 63 "/>
</clipPath>
<clipPath id="clip16">
  <path d="M 154.050781 72 L 162 72 L 162 89 L 154.050781 89 Z M 154.050781 72 "/>
</clipPath>
<clipPath id="clip17">
  <path d="M 154.050781 122 L 156 122 L 156 130 L 154.050781 130 Z M 154.050781 122 "/>
</clipPath>
<clipPath id="clip18">
  <path d="M 170 126 L 216 126 L 216 141.5 L 170 141.5 Z M 170 126 "/>
</clipPath>
<clipPath id="clip19">
  <path d="M 154.050781 98 L 159 98 L 159 102 L 154.050781 102 Z M 154.050781 98 "/>
</clipPath>
<clipPath id="clip20">
  <path d="M 199 70.816406 L 214 70.816406 L 214 79 L 199 79 Z M 199 70.816406 "/>
</clipPath>
<clipPath id="clip21">
  <path d="M 230 72 L 240.414062 72 L 240.414062 82 L 230 82 Z M 230 72 "/>
</clipPath>
<clipPath id="clip22">
  <path d="M 235 87 L 240.414062 87 L 240.414062 123 L 235 123 Z M 235 87 "/>
</clipPath>
<clipPath id="clip23">
  <path d="M 154.050781 134 L 169 134 L 169 141.5 L 154.050781 141.5 Z M 154.050781 134 "/>
</clipPath>
<clipPath id="clip24">
  <path d="M 230 127 L 240.414062 127 L 240.414062 137 L 230 137 Z M 230 127 "/>
</clipPath>
<clipPath id="clip25">
  <path d="M 181 70.816406 L 192 70.816406 L 192 74 L 181 74 Z M 181 70.816406 "/>
</clipPath>
<clipPath id="clip26">
  <path d="M 162 70.816406 L 172 70.816406 L 172 75 L 162 75 Z M 162 70.816406 "/>
</clipPath>
<clipPath id="clip27">
  <path d="M 224 70.816406 L 229 70.816406 L 229 74 L 224 74 Z M 224 70.816406 "/>
</clipPath>
</defs>
<g id="surface1">
<g clip-path="url(#clip1)" clip-rule="nonzero">
<path style=" stroke:none;fill-rule:nonzero;fill:rgb(100%,100%,100%);fill-opacity:1;" d="M 0.0859375 0 L 240.664062 0 L 240.664062 148.390625 L 0.0859375 148.390625 Z M 0.0859375 0 "/>
<path style=" stroke:none;fill-rule:nonzero;fill:rgb(100%,100%,100%);fill-opacity:1;" d="M 0.0859375 0 L 240.664062 0 L 240.664062 141.648438 L 0.0859375 141.648438 Z M 0.0859375 0 "/>
<path style=" stroke:none;fill-rule:nonzero;fill:rgb(100%,100%,100%);fill-opacity:1;" d="M 0.0859375 0 L 240.664062 0 L 240.664062 141.648438 L 0.0859375 141.648438 Z M 0.0859375 0 "/>
</g>
<g clip-path="url(#clip2)" clip-rule="nonzero">
<path style=" stroke:none;fill-rule:evenodd;fill:rgb(100%,100%,100%);fill-opacity:1;" d="M 154.050781 2.554688 C 154.867188 3.429688 155.351562 4.460938 155.390625 5.574219 C 155.429688 6.789062 154.9375 7.9375 154.050781 8.914062 L 154.050781 2.554688 "/>
</g>
<path style=" stroke:none;fill-rule:evenodd;fill:rgb(100%,17.248535%,49.798584%);fill-opacity:1;" d="M 171.578125 7.074219 C 172.640625 6.375 173.800781 5.988281 175.054688 6.394531 C 175.382812 6.5 175.683594 6.667969 175.941406 6.898438 C 176.917969 7.75 177.113281 9.214844 177.292969 10.421875 C 177.367188 10.945312 177.53125 12.621094 178.148438 12.816406 C 178.214844 12.839844 178.28125 12.847656 178.355469 12.84375 C 178.929688 12.789062 179.863281 11.777344 180.25 11.382812 C 181.339844 10.261719 182.695312 8.871094 184.425781 9.433594 C 184.753906 9.539062 185.054688 9.707031 185.3125 9.9375 C 186.289062 10.789062 186.484375 12.253906 186.664062 13.464844 C 186.738281 13.988281 186.902344 15.660156 187.519531 15.859375 C 187.585938 15.882812 187.652344 15.890625 187.726562 15.882812 C 188.300781 15.832031 189.234375 14.820312 189.621094 14.421875 C 190.714844 13.300781 192.066406 11.914062 193.796875 12.472656 C 194.125 12.582031 194.425781 12.75 194.683594 12.976562 C 195.660156 13.828125 195.855469 15.292969 196.035156 16.503906 C 196.109375 17.027344 196.273438 18.699219 196.890625 18.898438 C 196.957031 18.921875 197.023438 18.929688 197.097656 18.921875 C 197.671875 18.871094 198.605469 17.859375 198.992188 17.460938 C 200.085938 16.339844 201.4375 14.953125 203.167969 15.515625 C 203.496094 15.621094 203.796875 15.789062 204.058594 16.015625 C 205.03125 16.871094 205.226562 18.332031 205.402344 19.542969 C 205.480469 20.066406 205.644531 21.742188 206.261719 21.9375 C 206.332031 21.960938 206.398438 21.96875 206.46875 21.964844 C 207.042969 21.910156 207.976562 20.898438 208.363281 20.503906 C 209.457031 19.382812 210.808594 17.992188 212.539062 18.554688 C 213.714844 18.9375 214.421875 19.84375 214.875 20.953125 L 215.238281 21.839844 C 215.351562 22.066406 215.378906 22.332031 215.292969 22.589844 C 215.121094 23.121094 214.546875 23.410156 214.011719 23.234375 C 213.6875 23.128906 213.453125 22.878906 213.351562 22.582031 L 213 21.722656 C 212.785156 21.195312 212.484375 20.667969 211.914062 20.480469 C 211.84375 20.460938 211.777344 20.453125 211.707031 20.457031 C 211.132812 20.511719 210.199219 21.523438 209.8125 21.917969 C 208.71875 23.039062 207.367188 24.425781 205.636719 23.867188 C 205.308594 23.761719 205.007812 23.59375 204.746094 23.363281 C 203.769531 22.511719 203.578125 21.046875 203.398438 19.835938 C 203.324219 19.3125 203.15625 17.640625 202.542969 17.441406 C 202.472656 17.417969 202.40625 17.410156 202.335938 17.417969 C 201.761719 17.46875 200.828125 18.480469 200.441406 18.878906 C 199.347656 20 197.996094 21.386719 196.265625 20.828125 C 195.9375 20.71875 195.636719 20.550781 195.375 20.324219 C 194.398438 19.472656 194.207031 18.007812 194.027344 16.796875 C 193.953125 16.273438 193.789062 14.601562 193.171875 14.402344 C 193.101562 14.378906 193.035156 14.371094 192.964844 14.378906 C 192.390625 14.429688 191.457031 15.441406 191.070312 15.835938 C 189.976562 16.960938 188.625 18.347656 186.894531 17.785156 C 186.566406 17.679688 186.265625 17.511719 186.003906 17.285156 C 185.027344 16.433594 184.832031 14.96875 184.65625 13.757812 C 184.582031 13.234375 184.417969 11.5625 183.800781 11.363281 C 183.730469 11.339844 183.664062 11.332031 183.59375 11.335938 C 183.019531 11.390625 182.085938 12.402344 181.699219 12.796875 C 180.605469 13.917969 179.25 15.308594 177.523438 14.746094 C 177.195312 14.640625 176.894531 14.472656 176.636719 14.242188 C 175.65625 13.390625 175.464844 11.925781 175.285156 10.714844 C 175.210938 10.191406 175.046875 8.519531 174.429688 8.320312 C 173.8125 8.121094 173.203125 8.433594 172.691406 8.769531 L 172.019531 9.210938 C 171.761719 9.421875 171.398438 9.5 171.054688 9.386719 C 170.519531 9.214844 170.222656 8.644531 170.394531 8.113281 C 170.472656 7.878906 170.628906 7.691406 170.828125 7.570312 L 171.578125 7.074219 "/>
<g clip-path="url(#clip3)" clip-rule="nonzero">
<path style=" stroke:none;fill-rule:evenodd;fill:rgb(100%,100%,100%);fill-opacity:1;" d="M 209.855469 71.097656 C 211.042969 67.554688 209.152344 63.707031 205.609375 62.480469 L 205.613281 62.476562 C 204.8125 62.199219 204.390625 61.328125 204.664062 60.53125 C 204.941406 59.730469 205.816406 59.304688 206.613281 59.582031 L 206.671875 59.601562 C 211.445312 61.285156 214.128906 66.265625 213.035156 71.097656 L 209.855469 71.097656 "/>
</g>
<path style=" stroke:none;fill-rule:evenodd;fill:rgb(49.798584%,94.119263%,100%);fill-opacity:1;" d="M 190.054688 -2.84375 C 190.253906 -2.722656 190.449219 -2.59375 190.644531 -2.457031 C 192.539062 -1.238281 194.449219 -0.953125 195.507812 -1.898438 C 196.570312 -2.84375 196.5 -4.769531 195.507812 -6.792969 C 193.765625 -10.003906 193.757812 -13.402344 195.738281 -15.167969 C 197.714844 -16.933594 201.078125 -16.542969 204.0625 -14.460938 C 204.429688 -14.226562 204.796875 -14.023438 205.160156 -13.859375 L 203.242188 -12.152344 C 202.886719 -12.351562 202.53125 -12.570312 202.183594 -12.816406 C 200.300781 -14.011719 198.414062 -14.289062 197.359375 -13.351562 C 196.300781 -12.402344 196.371094 -10.476562 197.363281 -8.453125 C 199.101562 -5.246094 199.113281 -1.84375 197.132812 -0.078125 C 195.152344 1.6875 191.773438 1.292969 188.785156 -0.800781 C 188.578125 -0.933594 188.375 -1.050781 188.167969 -1.160156 L 190.054688 -2.84375 "/>
<g clip-path="url(#clip4)" clip-rule="nonzero">
<path style=" stroke:none;fill-rule:evenodd;fill:rgb(49.798584%,94.119263%,100%);fill-opacity:1;" d="M 237.117188 -33.195312 C 238.246094 -33.097656 239.273438 -32.730469 239.925781 -31.753906 C 240.097656 -31.496094 240.214844 -31.214844 240.269531 -30.910156 C 240.484375 -29.773438 239.8125 -28.640625 239.265625 -27.695312 C 239.03125 -27.289062 238.222656 -26.027344 238.542969 -25.546875 C 238.578125 -25.492188 238.621094 -25.449219 238.675781 -25.414062 C 239.105469 -25.132812 240.320312 -25.328125 240.808594 -25.390625 C 242.191406 -25.574219 243.90625 -25.796875 244.808594 -24.449219 C 244.980469 -24.191406 245.097656 -23.910156 245.152344 -23.605469 C 245.367188 -22.472656 244.695312 -21.339844 244.148438 -20.394531 C 243.914062 -19.984375 243.105469 -18.722656 243.425781 -18.242188 C 243.460938 -18.1875 243.503906 -18.148438 243.558594 -18.113281 C 243.988281 -17.832031 245.203125 -18.023438 245.691406 -18.089844 C 247.074219 -18.269531 248.789062 -18.492188 249.691406 -17.144531 C 249.863281 -16.890625 249.980469 -16.605469 250.035156 -16.304688 C 250.25 -15.167969 249.578125 -14.035156 249.03125 -13.089844 C 248.796875 -12.679688 247.988281 -11.417969 248.308594 -10.9375 C 248.34375 -10.882812 248.386719 -10.84375 248.441406 -10.808594 C 248.871094 -10.527344 250.085938 -10.71875 250.574219 -10.785156 C 251.960938 -10.964844 253.671875 -11.191406 254.574219 -9.84375 C 254.746094 -9.585938 254.863281 -9.300781 254.917969 -9 C 255.132812 -7.863281 254.460938 -6.730469 253.914062 -5.785156 C 253.679688 -5.375 252.871094 -4.113281 253.191406 -3.632812 C 253.226562 -3.578125 253.269531 -3.539062 253.324219 -3.503906 C 253.753906 -3.222656 254.96875 -3.414062 255.457031 -3.480469 C 256.839844 -3.660156 258.554688 -3.886719 259.457031 -2.539062 C 260.070312 -1.621094 260.0625 -0.59375 259.769531 0.433594 L 259.535156 1.253906 C 259.488281 1.472656 259.359375 1.675781 259.15625 1.808594 C 258.746094 2.085938 258.183594 1.972656 257.902344 1.550781 C 257.734375 1.300781 257.707031 0.996094 257.804688 0.734375 L 258.03125 -0.0625 C 258.171875 -0.550781 258.253906 -1.085938 257.953125 -1.535156 C 257.917969 -1.585938 257.878906 -1.628906 257.824219 -1.664062 C 257.394531 -1.945312 256.179688 -1.75 255.691406 -1.6875 C 254.304688 -1.507812 252.589844 -1.28125 251.691406 -2.628906 C 251.519531 -2.886719 251.402344 -3.167969 251.34375 -3.472656 C 251.132812 -4.609375 251.804688 -5.738281 252.347656 -6.6875 C 252.585938 -7.09375 253.390625 -8.355469 253.070312 -8.835938 C 253.035156 -8.890625 252.996094 -8.933594 252.941406 -8.96875 C 252.507812 -9.25 251.296875 -9.054688 250.808594 -8.992188 C 249.421875 -8.8125 247.707031 -8.585938 246.808594 -9.933594 C 246.636719 -10.1875 246.519531 -10.472656 246.460938 -10.777344 C 246.25 -11.910156 246.921875 -13.042969 247.46875 -13.988281 C 247.699219 -14.398438 248.511719 -15.660156 248.1875 -16.140625 C 248.152344 -16.195312 248.113281 -16.238281 248.058594 -16.273438 C 247.625 -16.554688 246.414062 -16.359375 245.925781 -16.296875 C 244.539062 -16.113281 242.824219 -15.890625 241.921875 -17.238281 C 241.753906 -17.492188 241.636719 -17.777344 241.578125 -18.082031 C 241.367188 -19.214844 242.039062 -20.347656 242.582031 -21.292969 C 242.820312 -21.703125 243.628906 -22.964844 243.304688 -23.445312 C 243.269531 -23.5 243.226562 -23.542969 243.175781 -23.578125 C 242.742188 -23.859375 241.53125 -23.664062 241.042969 -23.601562 C 239.65625 -23.417969 237.941406 -23.191406 237.042969 -24.542969 C 236.871094 -24.796875 236.753906 -25.082031 236.695312 -25.382812 C 236.484375 -26.519531 237.15625 -27.652344 237.699219 -28.597656 C 237.9375 -29.007812 238.742188 -30.269531 238.425781 -30.75 C 238.101562 -31.230469 237.5 -31.347656 236.960938 -31.394531 L 236.242188 -31.457031 C 235.945312 -31.453125 235.652344 -31.597656 235.472656 -31.863281 C 235.191406 -32.28125 235.300781 -32.847656 235.710938 -33.121094 C 235.898438 -33.246094 236.113281 -33.289062 236.316406 -33.265625 L 237.117188 -33.195312 "/>
</g>
<path style=" stroke:none;fill-rule:evenodd;fill:rgb(32.159424%,44.309998%,100%);fill-opacity:1;" d="M 219.371094 0.585938 C 223.917969 3.574219 225.195312 9.667969 222.242188 14.226562 L 222.203125 14.289062 C 221.738281 14.996094 220.789062 15.191406 220.082031 14.726562 C 219.375 14.261719 219.179688 13.3125 219.644531 12.605469 L 219.640625 12.601562 C 221.710938 9.453125 220.835938 5.222656 217.6875 3.152344 C 214.539062 1.078125 210.304688 1.953125 208.234375 5.101562 L 208.230469 5.101562 C 207.765625 5.808594 206.816406 6.003906 206.109375 5.539062 C 205.402344 5.074219 205.207031 4.121094 205.671875 3.414062 L 205.707031 3.367188 C 208.722656 -1.15625 214.824219 -2.402344 219.371094 0.585938 "/>
<path style=" stroke:none;fill-rule:evenodd;fill:rgb(100%,17.649841%,50.19989%);fill-opacity:1;" d="M 212.078125 55.355469 C 212.238281 55.527344 212.394531 55.703125 212.546875 55.882812 C 214.0625 57.550781 215.832031 58.324219 217.101562 57.683594 C 218.371094 57.046875 218.804688 55.164062 218.367188 52.953125 C 217.515625 49.40625 218.390625 46.117188 220.757812 44.925781 C 223.125 43.734375 226.273438 44.980469 228.617188 47.765625 C 228.910156 48.085938 229.214844 48.375 229.519531 48.628906 L 227.226562 49.78125 C 226.933594 49.496094 226.652344 49.191406 226.375 48.867188 C 224.867188 47.222656 223.117188 46.46875 221.855469 47.101562 C 220.585938 47.742188 220.15625 49.621094 220.589844 51.832031 C 221.4375 55.382812 220.566406 58.667969 218.199219 59.863281 C 215.828125 61.054688 212.667969 59.796875 210.324219 57.003906 C 210.160156 56.824219 209.992188 56.652344 209.824219 56.492188 L 212.078125 55.355469 "/>
<path style=" stroke:none;fill-rule:evenodd;fill:rgb(32.159424%,44.309998%,100%);fill-opacity:1;" d="M 210.050781 38.503906 C 209.339844 38.007812 208.355469 38.183594 207.855469 38.894531 L 204.359375 43.882812 C 203.863281 44.59375 204.039062 45.582031 204.746094 46.078125 C 205.457031 46.578125 206.445312 46.402344 206.941406 45.691406 L 210.4375 40.699219 C 210.9375 39.992188 210.761719 39 210.050781 38.503906 "/>
<path style=" stroke:none;fill-rule:evenodd;fill:rgb(49.798584%,94.119263%,100%);fill-opacity:1;" d="M 220.773438 30.304688 L 223.019531 29.34375 L 224.683594 33.21875 L 228.554688 31.558594 L 229.519531 33.804688 L 225.644531 35.464844 L 227.304688 39.339844 L 225.058594 40.300781 L 223.398438 36.429688 L 219.523438 38.085938 L 218.558594 35.839844 L 222.433594 34.179688 L 220.773438 30.304688 "/>
<g clip-path="url(#clip5)" clip-rule="nonzero">
<path style=" stroke:none;fill-rule:evenodd;fill:rgb(100%,17.649841%,50.19989%);fill-opacity:1;" d="M 164.398438 15.894531 C 168.941406 18.882812 170.21875 24.976562 167.269531 29.535156 L 167.230469 29.597656 C 166.765625 30.304688 165.8125 30.5 165.105469 30.035156 C 164.398438 29.570312 164.203125 28.621094 164.667969 27.914062 L 164.664062 27.910156 C 166.734375 24.761719 165.859375 20.53125 162.710938 18.457031 C 159.921875 16.625 156.285156 17.101562 154.050781 19.421875 L 154.050781 15.570312 C 157.183594 13.785156 161.179688 13.777344 164.398438 15.894531 "/>
</g>
<path style=" stroke:none;fill-rule:evenodd;fill:rgb(100%,17.649841%,50.19989%);fill-opacity:1;" d="M 182.867188 21.765625 C 183.949219 21.765625 184.824219 22.640625 184.824219 23.722656 C 184.824219 24.804688 183.949219 25.679688 182.867188 25.679688 C 181.785156 25.679688 180.910156 24.804688 180.910156 23.722656 C 180.910156 22.640625 181.785156 21.765625 182.867188 21.765625 "/>
<path style=" stroke:none;fill-rule:evenodd;fill:rgb(49.798584%,94.119263%,100%);fill-opacity:1;" d="M 191.585938 27.492188 C 193.210938 27.292969 194.460938 27.390625 195.597656 28.773438 C 196.730469 30.144531 197.179688 32.03125 198.1875 33.367188 C 198.65625 33.996094 199.042969 33.929688 199.765625 33.871094 L 200.972656 33.777344 C 202.390625 33.753906 202.722656 35.785156 201.164062 36.191406 L 199.957031 36.285156 C 198.375 36.410156 197.269531 36.171875 196.25 34.820312 C 195.242188 33.480469 194.722656 31.515625 193.734375 30.3125 C 193.203125 29.671875 192.632812 29.800781 191.878906 29.894531 L 190.675781 30.039062 C 189.277344 30.160156 189.054688 28.175781 190.382812 27.640625 L 191.585938 27.492188 "/>
<path style=" stroke:none;fill-rule:evenodd;fill:rgb(32.159424%,44.309998%,100%);fill-opacity:1;" d="M 181.328125 50.203125 C 182.722656 47.574219 185.980469 46.570312 188.613281 47.960938 C 188.75 48.035156 188.886719 48.113281 189.015625 48.199219 C 189.65625 48.582031 189.890625 49.402344 189.535156 50.070312 C 189.183594 50.738281 188.375 51 187.699219 50.6875 C 187.578125 50.589844 187.445312 50.503906 187.304688 50.429688 C 186.039062 49.761719 184.46875 50.242188 183.800781 51.511719 C 183.128906 52.773438 183.609375 54.34375 184.878906 55.015625 C 185.019531 55.089844 185.164062 55.148438 185.308594 55.195312 C 185.949219 55.578125 186.1875 56.398438 185.832031 57.066406 C 185.480469 57.730469 184.667969 58 183.992188 57.683594 L 183.984375 57.683594 L 183.976562 57.679688 C 183.839844 57.621094 183.703125 57.554688 183.570312 57.484375 C 180.941406 56.09375 179.9375 52.832031 181.328125 50.203125 "/>
<g clip-path="url(#clip6)" clip-rule="nonzero">
<path style=" stroke:none;fill-rule:evenodd;fill:rgb(49.798584%,94.119263%,100%);fill-opacity:1;" d="M 154.050781 29.574219 C 154.734375 30.074219 155.394531 30.6875 155.996094 31.40625 C 156.289062 31.726562 156.59375 32.015625 156.898438 32.269531 L 154.609375 33.421875 C 154.417969 33.238281 154.230469 33.046875 154.050781 32.847656 L 154.050781 29.574219 "/>
</g>
<path style=" stroke:none;fill-rule:evenodd;fill:rgb(32.159424%,44.309998%,100%);fill-opacity:1;" d="M 171.902344 52.183594 C 171.191406 51.683594 170.207031 51.859375 169.707031 52.570312 L 166.214844 57.5625 C 165.714844 58.273438 165.890625 59.257812 166.597656 59.757812 C 167.308594 60.253906 168.296875 60.078125 168.792969 59.371094 L 172.289062 54.378906 C 172.789062 53.667969 172.613281 52.679688 171.902344 52.183594 "/>
<g clip-path="url(#clip7)" clip-rule="nonzero">
<path style=" stroke:none;fill-rule:evenodd;fill:rgb(100%,17.248535%,49.798584%);fill-opacity:1;" d="M 154.050781 41.949219 L 156.28125 44.179688 L 159.261719 41.199219 L 160.988281 42.929688 L 158.011719 45.910156 L 160.988281 48.890625 L 159.261719 50.617188 L 156.28125 47.636719 L 154.050781 49.867188 L 154.050781 46.410156 L 154.554688 45.910156 L 154.050781 45.40625 L 154.050781 41.949219 "/>
</g>
<g clip-path="url(#clip8)" clip-rule="nonzero">
<path style=" stroke:none;fill-rule:evenodd;fill:rgb(100%,17.649841%,50.19989%);fill-opacity:1;" d="M 240.945312 7.457031 C 239.320312 7.257812 238.070312 7.355469 236.929688 8.738281 C 235.800781 10.109375 235.351562 11.996094 234.34375 13.332031 C 233.871094 13.957031 233.488281 13.894531 232.761719 13.835938 L 231.554688 13.742188 C 230.140625 13.722656 229.808594 15.75 231.363281 16.152344 L 232.570312 16.25 C 234.152344 16.375 235.261719 16.136719 236.277344 14.789062 C 237.289062 13.445312 237.804688 11.480469 238.796875 10.28125 C 239.328125 9.636719 239.898438 9.765625 240.652344 9.859375 L 241.851562 10.007812 C 243.253906 10.125 243.472656 8.140625 242.144531 7.605469 L 240.945312 7.457031 "/>
</g>
<path style=" stroke:none;fill-rule:evenodd;fill:rgb(49.798584%,94.119263%,100%);fill-opacity:1;" d="M 228.550781 -1.570312 C 229.632812 -1.570312 230.511719 -0.695312 230.511719 0.386719 C 230.511719 1.46875 229.632812 2.347656 228.550781 2.347656 C 227.46875 2.347656 226.59375 1.46875 226.59375 0.386719 C 226.59375 -0.695312 227.46875 -1.570312 228.550781 -1.570312 "/>
<path style=" stroke:none;fill-rule:evenodd;fill:rgb(100%,17.248535%,49.798584%);fill-opacity:1;" d="M 193.445312 41.34375 C 194.527344 41.34375 195.402344 42.21875 195.402344 43.300781 C 195.402344 44.382812 194.527344 45.261719 193.445312 45.261719 C 192.363281 45.261719 191.484375 44.382812 191.484375 43.300781 C 191.484375 42.21875 192.363281 41.34375 193.445312 41.34375 "/>
<path style=" stroke:none;fill-rule:evenodd;fill:rgb(49.798584%,94.119263%,100%);fill-opacity:1;" d="M 197.832031 51.917969 C 198.914062 51.917969 199.792969 52.796875 199.792969 53.875 C 199.792969 54.960938 198.914062 55.835938 197.832031 55.835938 C 196.753906 55.835938 195.875 54.960938 195.875 53.875 C 195.875 52.796875 196.753906 51.917969 197.832031 51.917969 "/>
<path style=" stroke:none;fill-rule:evenodd;fill:rgb(100%,17.248535%,49.798584%);fill-opacity:1;" d="M 231.160156 23.582031 C 232.238281 23.582031 233.117188 24.460938 233.117188 25.542969 C 233.117188 26.625 232.238281 27.5 231.160156 27.5 C 230.078125 27.5 229.199219 26.625 229.199219 25.542969 C 229.199219 24.460938 230.078125 23.582031 231.160156 23.582031 "/>
<path style=" stroke:none;fill-rule:evenodd;fill:rgb(100%,17.649841%,50.19989%);fill-opacity:1;" d="M 237.742188 39.148438 C 238.824219 39.148438 239.699219 40.023438 239.699219 41.105469 C 239.699219 42.1875 238.824219 43.066406 237.742188 43.066406 C 236.660156 43.066406 235.785156 42.1875 235.785156 41.105469 C 235.785156 40.023438 236.660156 39.148438 237.742188 39.148438 "/>
<path style=" stroke:none;fill-rule:evenodd;fill:rgb(100%,17.248535%,49.798584%);fill-opacity:1;" d="M 226.570312 58.703125 C 227.652344 58.703125 228.527344 59.578125 228.527344 60.664062 C 228.527344 61.746094 227.652344 62.621094 226.570312 62.621094 C 225.488281 62.621094 224.609375 61.746094 224.609375 60.664062 C 224.609375 59.578125 225.488281 58.703125 226.570312 58.703125 "/>
<g clip-path="url(#clip9)" clip-rule="nonzero">
<path style=" stroke:none;fill-rule:evenodd;fill:rgb(49.798584%,94.119263%,100%);fill-opacity:1;" d="M 154.050781 55.886719 C 156.074219 56.773438 157.484375 58.789062 157.484375 61.140625 C 157.484375 63.488281 156.074219 65.507812 154.050781 66.394531 L 154.050781 62.488281 C 154.285156 62.09375 154.417969 61.632812 154.417969 61.140625 C 154.417969 60.648438 154.285156 60.1875 154.050781 59.789062 L 154.050781 55.886719 "/>
</g>
<g clip-path="url(#clip10)" clip-rule="nonzero">
<path style=" stroke:none;fill-rule:evenodd;fill:rgb(100%,17.649841%,50.19989%);fill-opacity:1;" d="M 186.25 65.632812 C 187.722656 65.632812 188.917969 66.828125 188.917969 68.300781 C 188.917969 69.777344 187.722656 70.972656 186.25 70.972656 C 184.773438 70.972656 183.578125 69.777344 183.578125 68.300781 C 183.578125 66.828125 184.773438 65.632812 186.25 65.632812 Z M 186.25 62.566406 C 189.417969 62.566406 191.984375 65.132812 191.984375 68.300781 C 191.984375 69.316406 191.722656 70.269531 191.257812 71.097656 L 181.238281 71.097656 C 180.777344 70.269531 180.511719 69.316406 180.511719 68.300781 C 180.511719 65.132812 183.078125 62.566406 186.25 62.566406 "/>
</g>
<path style=" stroke:none;fill-rule:evenodd;fill:rgb(100%,100%,100%);fill-opacity:1;" d="M 178.589844 33.726562 C 180.066406 33.726562 181.261719 34.921875 181.261719 36.398438 C 181.261719 37.871094 180.066406 39.066406 178.589844 39.066406 C 177.117188 39.066406 175.921875 37.871094 175.921875 36.398438 C 175.921875 34.921875 177.117188 33.726562 178.589844 33.726562 Z M 178.589844 30.660156 C 181.757812 30.660156 184.328125 33.230469 184.328125 36.398438 C 184.328125 39.566406 181.757812 42.132812 178.589844 42.132812 C 175.421875 42.132812 172.851562 39.566406 172.851562 36.398438 C 172.851562 33.230469 175.421875 30.660156 178.589844 30.660156 "/>
<path style=" stroke:none;fill-rule:evenodd;fill:rgb(100%,17.649841%,50.19989%);fill-opacity:1;" d="M 197.664062 3.894531 C 198.746094 3.894531 199.625 4.769531 199.625 5.851562 C 199.625 6.9375 198.746094 7.8125 197.664062 7.8125 C 196.582031 7.8125 195.707031 6.9375 195.707031 5.851562 C 195.707031 4.769531 196.582031 3.894531 197.664062 3.894531 "/>
<path style=" stroke:none;fill-rule:evenodd;fill:rgb(49.798584%,94.119263%,100%);fill-opacity:1;" d="M 163.300781 4.214844 C 164.382812 4.214844 165.257812 5.09375 165.257812 6.175781 C 165.257812 7.253906 164.382812 8.132812 163.300781 8.132812 C 162.21875 8.132812 161.34375 7.253906 161.34375 6.175781 C 161.34375 5.09375 162.21875 4.214844 163.300781 4.214844 "/>
<g clip-path="url(#clip11)" clip-rule="nonzero">
<path style=" stroke:none;fill-rule:evenodd;fill:rgb(49.798584%,94.119263%,100%);fill-opacity:1;" d="M 246.96875 25.335938 C 246.257812 24.835938 245.273438 25.011719 244.773438 25.722656 L 241.277344 30.714844 C 240.78125 31.421875 240.957031 32.410156 241.667969 32.910156 C 242.375 33.40625 243.363281 33.230469 243.859375 32.519531 L 247.355469 27.53125 C 247.851562 26.820312 247.679688 25.832031 246.96875 25.335938 "/>
</g>
<g clip-path="url(#clip12)" clip-rule="nonzero">
<path style=" stroke:none;fill-rule:evenodd;fill:rgb(100%,17.248535%,49.798584%);fill-opacity:1;" d="M 162.3125 66.496094 L 164.085938 64.8125 L 166.988281 67.863281 L 170.042969 64.960938 L 171.730469 66.730469 L 168.675781 69.636719 L 170.066406 71.097656 L 163.589844 71.097656 L 165.21875 69.550781 L 162.3125 66.496094 "/>
</g>
<g clip-path="url(#clip13)" clip-rule="nonzero">
<path style=" stroke:none;fill-rule:evenodd;fill:rgb(49.798584%,94.119263%,100%);fill-opacity:1;" d="M 228.421875 65.308594 C 227.597656 65.042969 226.703125 65.496094 226.433594 66.320312 L 224.871094 71.097656 L 228.1875 71.097656 L 229.429688 67.300781 C 229.699219 66.472656 229.246094 65.582031 228.421875 65.308594 "/>
</g>
<g clip-path="url(#clip14)" clip-rule="nonzero">
<path style=" stroke:none;fill-rule:evenodd;fill:rgb(49.798584%,94.119263%,100%);fill-opacity:1;" d="M 247.402344 52.457031 C 251.945312 55.445312 253.222656 61.539062 250.269531 66.097656 L 250.230469 66.160156 C 249.769531 66.867188 248.816406 67.0625 248.109375 66.597656 C 247.402344 66.132812 247.207031 65.183594 247.671875 64.476562 L 247.667969 64.472656 C 249.738281 61.324219 248.863281 57.09375 245.714844 55.019531 C 242.566406 52.949219 238.335938 53.824219 236.261719 56.972656 L 236.257812 56.972656 C 235.792969 57.679688 234.84375 57.875 234.136719 57.410156 C 233.429688 56.945312 233.234375 55.996094 233.699219 55.285156 L 233.734375 55.238281 C 236.75 50.714844 242.855469 49.464844 247.402344 52.457031 "/>
</g>
<g clip-path="url(#clip15)" clip-rule="nonzero">
<path style=" stroke:none;fill-rule:evenodd;fill:rgb(100%,17.649841%,50.19989%);fill-opacity:1;" d="M 238.582031 63.492188 C 239.664062 63.492188 240.542969 64.367188 240.542969 65.449219 C 240.542969 66.53125 239.664062 67.410156 238.582031 67.410156 C 237.5 67.410156 236.625 66.53125 236.625 65.449219 C 236.625 64.367188 237.5 63.492188 238.582031 63.492188 "/>
</g>
<path style=" stroke:none;fill-rule:evenodd;fill:rgb(32.159424%,44.309998%,100%);fill-opacity:1;" d="M 195.152344 59.808594 C 195.863281 59.3125 196.847656 59.484375 197.34375 60.195312 L 200.839844 65.1875 C 201.339844 65.898438 201.164062 66.882812 200.453125 67.382812 C 199.742188 67.878906 198.757812 67.703125 198.261719 66.996094 L 194.765625 62 C 194.265625 61.292969 194.441406 60.304688 195.152344 59.808594 "/>
<path style=" stroke:none;fill-rule:evenodd;fill:rgb(100%,17.248535%,49.798584%);fill-opacity:1;" d="M 179.945312 0.863281 C 181.027344 0.863281 181.90625 1.738281 181.90625 2.820312 C 181.90625 3.902344 181.027344 4.777344 179.945312 4.777344 C 178.863281 4.777344 177.988281 3.902344 177.988281 2.820312 C 177.988281 1.738281 178.863281 0.863281 179.945312 0.863281 "/>
<path style=" stroke:none;fill-rule:evenodd;fill:rgb(32.159424%,44.309998%,100%);fill-opacity:1;" d="M 162.566406 34.078125 C 163.648438 34.078125 164.523438 34.953125 164.523438 36.035156 C 164.523438 37.117188 163.648438 37.996094 162.566406 37.996094 C 161.484375 37.996094 160.609375 37.117188 160.609375 36.035156 C 160.609375 34.953125 161.484375 34.078125 162.566406 34.078125 "/>
<path style=" stroke:none;fill-rule:evenodd;fill:rgb(49.798584%,94.119263%,100%);fill-opacity:1;" d="M 175.976562 60.257812 C 177.058594 60.257812 177.933594 61.136719 177.933594 62.21875 C 177.933594 63.296875 177.058594 64.175781 175.976562 64.175781 C 174.894531 64.175781 174.019531 63.296875 174.019531 62.21875 C 174.019531 61.136719 174.894531 60.257812 175.976562 60.257812 "/>
<path style=" stroke:none;fill-rule:evenodd;fill:rgb(100%,17.649841%,50.19989%);fill-opacity:1;" d="M 211.414062 27.054688 C 212.496094 27.054688 213.375 27.929688 213.375 29.011719 C 213.375 30.09375 212.496094 30.972656 211.414062 30.972656 C 210.332031 30.972656 209.457031 30.09375 209.457031 29.011719 C 209.457031 27.929688 210.332031 27.054688 211.414062 27.054688 "/>
<path style=" stroke:none;fill-rule:evenodd;fill:rgb(100%,100%,100%);fill-opacity:1;" d="M 214.386719 8.804688 C 215.46875 8.804688 216.34375 9.679688 216.34375 10.761719 C 216.34375 11.84375 215.46875 12.722656 214.386719 12.722656 C 213.304688 12.722656 212.429688 11.84375 212.429688 10.761719 C 212.429688 9.679688 213.304688 8.804688 214.386719 8.804688 "/>
<path style=" stroke:none;fill-rule:evenodd;fill:rgb(49.798584%,94.119263%,100%);fill-opacity:1;" d="M 168.523438 42.910156 C 169.605469 42.910156 170.484375 43.785156 170.484375 44.867188 C 170.484375 45.949219 169.605469 46.828125 168.523438 46.828125 C 167.441406 46.828125 166.566406 45.949219 166.566406 44.867188 C 166.566406 43.785156 167.441406 42.910156 168.523438 42.910156 "/>
<path style=" stroke:none;fill-rule:evenodd;fill:rgb(100%,17.248535%,49.798584%);fill-opacity:1;" d="M 212.761719 47.28125 C 213.84375 47.28125 214.722656 48.15625 214.722656 49.238281 C 214.722656 50.320312 213.84375 51.195312 212.761719 51.195312 C 211.679688 51.195312 210.804688 50.320312 210.804688 49.238281 C 210.804688 48.15625 211.679688 47.28125 212.761719 47.28125 "/>
<g clip-path="url(#clip16)" clip-rule="nonzero">
<path style=" stroke:none;fill-rule:evenodd;fill:rgb(49.798584%,94.119263%,100%);fill-opacity:1;" d="M 157.203125 74.308594 C 161.75 77.296875 163.023438 83.390625 160.074219 87.949219 L 160.035156 88.007812 C 159.570312 88.714844 158.617188 88.914062 157.910156 88.445312 C 157.207031 87.984375 157.007812 87.035156 157.472656 86.324219 L 157.46875 86.324219 C 159.539062 83.175781 158.664062 78.941406 155.515625 76.871094 C 155.046875 76.5625 154.558594 76.320312 154.050781 76.140625 L 154.050781 72.945312 C 155.144531 73.203125 156.210938 73.65625 157.203125 74.308594 "/>
</g>
<path style=" stroke:none;fill-rule:evenodd;fill:rgb(100%,100%,100%);fill-opacity:1;" d="M 166.398438 100.664062 C 167.480469 100.664062 168.355469 101.542969 168.355469 102.625 C 168.355469 103.707031 167.480469 104.582031 166.398438 104.582031 C 165.316406 104.582031 164.4375 103.707031 164.4375 102.625 C 164.4375 101.542969 165.316406 100.664062 166.398438 100.664062 "/>
<path style=" stroke:none;fill-rule:evenodd;fill:rgb(100%,100%,100%);fill-opacity:1;" d="M 190.667969 87.992188 C 192.117188 88.753906 193.085938 89.546875 193.230469 91.335938 C 193.378906 93.105469 192.671875 94.910156 192.734375 96.582031 C 192.761719 97.367188 193.117188 97.53125 193.746094 97.902344 L 194.789062 98.511719 C 195.964844 99.300781 195.078125 101.15625 193.570312 100.601562 L 192.523438 99.992188 C 191.152344 99.191406 190.378906 98.363281 190.316406 96.671875 C 190.253906 94.996094 190.949219 93.085938 190.820312 91.535156 C 190.75 90.703125 190.207031 90.484375 189.539062 90.132812 L 188.46875 89.566406 C 187.25 88.863281 188.199219 87.109375 189.597656 87.425781 L 190.667969 87.992188 "/>
<path style=" stroke:none;fill-rule:evenodd;fill:rgb(49.798584%,94.119263%,100%);fill-opacity:1;" d="M 174.136719 108.617188 C 175.527344 105.984375 178.789062 104.980469 181.417969 106.375 C 181.554688 106.449219 181.691406 106.527344 181.820312 106.609375 C 182.460938 106.992188 182.695312 107.816406 182.34375 108.484375 C 181.988281 109.148438 181.179688 109.414062 180.503906 109.097656 C 180.382812 109.003906 180.25 108.917969 180.113281 108.84375 C 178.84375 108.171875 177.273438 108.65625 176.605469 109.921875 C 175.933594 111.1875 176.417969 112.757812 177.683594 113.429688 C 177.824219 113.503906 177.96875 113.5625 178.113281 113.609375 C 178.753906 113.992188 178.992188 114.808594 178.640625 115.476562 C 178.285156 116.144531 177.472656 116.410156 176.796875 116.097656 L 176.789062 116.09375 L 176.785156 116.089844 C 176.648438 116.035156 176.511719 115.96875 176.375 115.898438 C 173.746094 114.507812 172.742188 111.242188 174.136719 108.617188 "/>
<g clip-path="url(#clip17)" clip-rule="nonzero">
<path style=" stroke:none;fill-rule:evenodd;fill:rgb(100%,100%,100%);fill-opacity:1;" d="M 154.050781 122.941406 C 154.867188 123.8125 155.351562 124.84375 155.390625 125.960938 C 155.429688 127.171875 154.9375 128.320312 154.050781 129.300781 L 154.050781 122.941406 "/>
</g>
<g clip-path="url(#clip18)" clip-rule="nonzero">
<path style=" stroke:none;fill-rule:evenodd;fill:rgb(100%,0.389099%,39.219666%);fill-opacity:1;" d="M 171.578125 127.460938 C 172.640625 126.761719 173.800781 126.371094 175.054688 126.777344 C 175.382812 126.886719 175.683594 127.054688 175.941406 127.28125 C 176.917969 128.132812 177.113281 129.597656 177.292969 130.808594 C 177.367188 131.332031 177.53125 133.003906 178.148438 133.203125 C 178.214844 133.226562 178.28125 133.234375 178.355469 133.226562 C 178.929688 133.175781 179.863281 132.164062 180.25 131.765625 C 181.339844 130.644531 182.695312 129.257812 184.425781 129.820312 C 184.753906 129.925781 185.054688 130.09375 185.3125 130.320312 C 186.289062 131.171875 186.484375 132.636719 186.664062 133.847656 C 186.738281 134.371094 186.902344 136.042969 187.519531 136.246094 C 187.585938 136.265625 187.652344 136.277344 187.726562 136.269531 C 188.300781 136.21875 189.234375 135.203125 189.621094 134.808594 C 190.714844 133.6875 192.066406 132.296875 193.796875 132.859375 C 194.125 132.964844 194.425781 133.132812 194.683594 133.363281 C 195.660156 134.214844 195.855469 135.675781 196.035156 136.890625 C 196.109375 137.414062 196.273438 139.085938 196.890625 139.285156 C 196.957031 139.308594 197.023438 139.316406 197.097656 139.308594 C 197.671875 139.257812 198.605469 138.246094 198.992188 137.847656 C 200.085938 136.726562 201.4375 135.335938 203.167969 135.898438 C 203.496094 136.007812 203.796875 136.175781 204.058594 136.402344 C 205.03125 137.253906 205.226562 138.71875 205.402344 139.929688 C 205.480469 140.453125 205.644531 142.125 206.261719 142.324219 C 206.332031 142.347656 206.398438 142.355469 206.46875 142.347656 C 207.042969 142.296875 207.976562 141.285156 208.363281 140.886719 C 209.457031 139.765625 210.808594 138.378906 212.539062 138.9375 C 213.714844 139.320312 214.421875 140.230469 214.875 141.339844 L 215.238281 142.226562 C 215.351562 142.453125 215.378906 142.71875 215.292969 142.976562 C 215.121094 143.503906 214.546875 143.792969 214.011719 143.621094 C 213.6875 143.515625 213.453125 143.265625 213.351562 142.96875 L 213 142.105469 C 212.785156 141.582031 212.484375 141.050781 211.914062 140.867188 C 211.84375 140.84375 211.777344 140.835938 211.707031 140.84375 C 211.132812 140.894531 210.199219 141.90625 209.8125 142.304688 C 208.71875 143.425781 207.367188 144.8125 205.636719 144.253906 C 205.308594 144.144531 205.007812 143.976562 204.746094 143.75 C 203.769531 142.898438 203.578125 141.433594 203.398438 140.222656 C 203.324219 139.699219 203.15625 138.027344 202.542969 137.828125 C 202.472656 137.804688 202.40625 137.796875 202.335938 137.800781 C 201.761719 137.855469 200.828125 138.867188 200.441406 139.261719 C 199.347656 140.382812 197.996094 141.773438 196.265625 141.210938 C 195.9375 141.105469 195.636719 140.9375 195.375 140.710938 C 194.398438 139.855469 194.207031 138.394531 194.027344 137.183594 C 193.953125 136.660156 193.789062 134.988281 193.171875 134.785156 C 193.101562 134.765625 193.035156 134.757812 192.964844 134.761719 C 192.390625 134.816406 191.457031 135.828125 191.070312 136.222656 C 189.976562 137.34375 188.625 138.734375 186.894531 138.171875 C 186.566406 138.066406 186.265625 137.898438 186.003906 137.667969 C 185.027344 136.816406 184.832031 135.351562 184.65625 134.140625 C 184.582031 133.617188 184.417969 131.945312 183.800781 131.746094 C 183.730469 131.726562 183.664062 131.714844 183.59375 131.722656 C 183.019531 131.773438 182.085938 132.789062 181.699219 133.183594 C 180.605469 134.304688 179.25 135.691406 177.523438 135.132812 C 177.195312 135.027344 176.894531 134.855469 176.636719 134.628906 C 175.65625 133.777344 175.464844 132.3125 175.285156 131.101562 C 175.210938 130.578125 175.046875 128.90625 174.429688 128.707031 C 173.8125 128.503906 173.203125 128.820312 172.691406 129.152344 L 172.019531 129.597656 C 171.761719 129.808594 171.398438 129.886719 171.054688 129.773438 C 170.519531 129.597656 170.222656 129.03125 170.394531 128.5 C 170.472656 128.265625 170.628906 128.074219 170.828125 127.953125 L 171.578125 127.460938 "/>
</g>
<path style=" stroke:none;fill-rule:evenodd;fill:rgb(49.798584%,94.119263%,100%);fill-opacity:1;" d="M 159.40625 110.59375 C 160.117188 110.097656 161.101562 110.273438 161.601562 110.984375 L 165.097656 115.972656 C 165.59375 116.683594 165.417969 117.671875 164.707031 118.167969 C 164 118.667969 163.011719 118.492188 162.511719 117.78125 L 159.019531 112.789062 C 158.519531 112.082031 158.695312 111.09375 159.40625 110.59375 "/>
<g clip-path="url(#clip19)" clip-rule="nonzero">
<path style=" stroke:none;fill-rule:evenodd;fill:rgb(49.798584%,94.119263%,100%);fill-opacity:1;" d="M 154.050781 98.511719 L 158.054688 98.585938 L 158.011719 101.027344 L 154.050781 100.957031 L 154.050781 98.511719 "/>
</g>
<g clip-path="url(#clip20)" clip-rule="nonzero">
<path style=" stroke:none;fill-rule:evenodd;fill:rgb(100%,100%,100%);fill-opacity:1;" d="M 212.734375 71.878906 C 210.957031 77.019531 205.367188 79.757812 200.222656 78.019531 L 200.152344 78 C 199.355469 77.722656 198.929688 76.851562 199.207031 76.050781 C 199.480469 75.25 200.351562 74.824219 201.152344 75.101562 L 201.15625 75.097656 C 204.71875 76.328125 208.601562 74.4375 209.832031 70.875 L 209.855469 70.8125 L 213.035156 70.8125 C 212.957031 71.167969 212.855469 71.523438 212.734375 71.878906 "/>
</g>
<path style=" stroke:none;fill-rule:evenodd;fill:rgb(32.159424%,44.309998%,100%);fill-opacity:1;" d="M 219.851562 81.179688 C 220.933594 81.179688 221.8125 82.054688 221.8125 83.136719 C 221.8125 84.21875 220.933594 85.09375 219.851562 85.09375 C 218.769531 85.09375 217.894531 84.21875 217.894531 83.136719 C 217.894531 82.054688 218.769531 81.179688 219.851562 81.179688 "/>
<g clip-path="url(#clip21)" clip-rule="nonzero">
<path style=" stroke:none;fill-rule:evenodd;fill:rgb(100%,100%,100%);fill-opacity:1;" d="M 240.941406 72.980469 C 239.316406 72.78125 238.066406 72.878906 236.925781 74.261719 C 235.796875 75.632812 235.347656 77.515625 234.339844 78.851562 C 233.867188 79.480469 233.484375 79.417969 232.757812 79.359375 L 231.554688 79.261719 C 230.136719 79.242188 229.804688 81.269531 231.363281 81.675781 L 232.570312 81.773438 C 234.152344 81.898438 235.257812 81.65625 236.273438 80.308594 C 237.285156 78.96875 237.804688 77.003906 238.792969 75.800781 C 239.324219 75.160156 239.894531 75.289062 240.648438 75.382812 L 241.847656 75.527344 C 243.25 75.648438 243.472656 73.664062 242.144531 73.125 L 240.941406 72.980469 "/>
</g>
<path style=" stroke:none;fill-rule:evenodd;fill:rgb(32.159424%,44.309998%,100%);fill-opacity:1;" d="M 226.164062 109.855469 C 224.226562 107.601562 224.484375 104.199219 226.742188 102.257812 C 226.863281 102.15625 226.984375 102.058594 227.109375 101.972656 C 227.699219 101.515625 228.550781 101.597656 229.042969 102.171875 C 229.535156 102.742188 229.480469 103.59375 228.945312 104.105469 C 228.8125 104.183594 228.683594 104.277344 228.5625 104.378906 C 227.476562 105.3125 227.351562 106.949219 228.285156 108.035156 C 229.21875 109.125 230.855469 109.25 231.941406 108.316406 C 232.0625 108.210938 232.171875 108.097656 232.269531 107.980469 C 232.859375 107.523438 233.707031 107.601562 234.199219 108.175781 C 234.691406 108.75 234.644531 109.601562 234.101562 110.113281 L 234.09375 110.125 C 233.988281 110.230469 233.878906 110.335938 233.761719 110.433594 C 231.503906 112.371094 228.105469 112.113281 226.164062 109.855469 "/>
<path style=" stroke:none;fill-rule:evenodd;fill:rgb(49.798584%,94.119263%,100%);fill-opacity:1;" d="M 190.054688 117.542969 C 190.253906 117.664062 190.449219 117.792969 190.644531 117.929688 C 192.539062 119.144531 194.449219 119.433594 195.507812 118.488281 C 196.570312 117.542969 196.5 115.613281 195.507812 113.589844 C 193.765625 110.382812 193.757812 106.984375 195.738281 105.214844 C 197.714844 103.453125 201.078125 103.84375 204.0625 105.925781 C 204.429688 106.160156 204.796875 106.359375 205.160156 106.523438 L 203.242188 108.230469 C 202.886719 108.035156 202.53125 107.8125 202.183594 107.570312 C 200.300781 106.375 198.414062 106.097656 197.359375 107.035156 C 196.300781 107.980469 196.371094 109.910156 197.363281 111.933594 C 199.101562 115.140625 199.113281 118.539062 197.132812 120.308594 C 195.152344 122.074219 191.773438 121.675781 188.785156 119.585938 C 188.578125 119.453125 188.375 119.332031 188.167969 119.222656 L 190.054688 117.542969 "/>
<g clip-path="url(#clip22)" clip-rule="nonzero">
<path style=" stroke:none;fill-rule:evenodd;fill:rgb(49.798584%,94.119263%,100%);fill-opacity:1;" d="M 237.117188 87.1875 C 238.246094 87.285156 239.273438 87.65625 239.925781 88.632812 C 240.097656 88.886719 240.214844 89.171875 240.269531 89.472656 C 240.484375 90.609375 239.8125 91.742188 239.265625 92.6875 C 239.03125 93.097656 238.222656 94.359375 238.542969 94.839844 C 238.578125 94.894531 238.621094 94.933594 238.675781 94.972656 C 239.105469 95.25 240.320312 95.058594 240.808594 94.992188 C 242.191406 94.8125 243.90625 94.585938 244.808594 95.9375 C 244.980469 96.191406 245.097656 96.472656 245.152344 96.777344 C 245.367188 97.914062 244.695312 99.046875 244.148438 99.992188 C 243.914062 100.402344 243.105469 101.664062 243.425781 102.144531 C 243.460938 102.195312 243.503906 102.238281 243.558594 102.273438 C 243.988281 102.554688 245.203125 102.359375 245.691406 102.296875 C 247.074219 102.117188 248.789062 101.890625 249.691406 103.238281 C 249.863281 103.496094 249.980469 103.78125 250.035156 104.082031 C 250.25 105.21875 249.578125 106.351562 249.03125 107.296875 C 248.796875 107.707031 247.988281 108.964844 248.308594 109.449219 C 248.34375 109.5 248.386719 109.542969 248.441406 109.578125 C 248.871094 109.859375 250.085938 109.664062 250.574219 109.601562 C 251.960938 109.421875 253.671875 109.195312 254.574219 110.542969 C 254.746094 110.800781 254.863281 111.082031 254.917969 111.386719 C 255.132812 112.519531 254.460938 113.652344 253.914062 114.601562 C 253.679688 115.007812 252.871094 116.269531 253.191406 116.75 C 253.226562 116.804688 253.269531 116.847656 253.324219 116.882812 C 253.753906 117.164062 254.96875 116.96875 255.457031 116.90625 C 256.839844 116.726562 258.554688 116.5 259.457031 117.847656 C 260.070312 118.765625 260.0625 119.789062 259.769531 120.820312 L 259.535156 121.636719 C 259.488281 121.859375 259.359375 122.0625 259.15625 122.195312 C 258.746094 122.472656 258.183594 122.355469 257.902344 121.9375 C 257.734375 121.683594 257.707031 121.382812 257.804688 121.117188 L 258.03125 120.320312 C 258.171875 119.832031 258.253906 119.296875 257.953125 118.851562 C 257.917969 118.800781 257.878906 118.757812 257.824219 118.722656 C 257.394531 118.441406 256.179688 118.632812 255.691406 118.699219 C 254.304688 118.878906 252.589844 119.105469 251.691406 117.757812 C 251.519531 117.5 251.402344 117.214844 251.34375 116.914062 C 251.132812 115.777344 251.804688 114.644531 252.347656 113.699219 C 252.585938 113.289062 253.390625 112.027344 253.070312 111.546875 C 253.035156 111.496094 252.996094 111.453125 252.941406 111.417969 C 252.507812 111.136719 251.296875 111.328125 250.808594 111.394531 C 249.421875 111.574219 247.707031 111.800781 246.808594 110.453125 C 246.636719 110.195312 246.519531 109.914062 246.460938 109.609375 C 246.25 108.472656 246.921875 107.339844 247.46875 106.394531 C 247.699219 105.984375 248.511719 104.722656 248.1875 104.246094 C 248.152344 104.191406 248.113281 104.148438 248.058594 104.113281 C 247.625 103.832031 246.414062 104.027344 245.925781 104.089844 C 244.539062 104.273438 242.824219 104.496094 241.921875 103.148438 C 241.753906 102.890625 241.636719 102.609375 241.578125 102.304688 C 241.367188 101.167969 242.039062 100.035156 242.582031 99.089844 C 242.820312 98.679688 243.628906 97.421875 243.304688 96.941406 C 243.269531 96.886719 243.226562 96.84375 243.175781 96.808594 C 242.742188 96.527344 241.53125 96.722656 241.042969 96.785156 C 239.65625 96.96875 237.941406 97.191406 237.042969 95.84375 C 236.871094 95.585938 236.753906 95.304688 236.695312 95 C 236.484375 93.867188 237.15625 92.734375 237.699219 91.785156 C 237.9375 91.378906 238.742188 90.117188 238.425781 89.636719 C 238.101562 89.15625 237.5 89.035156 236.960938 88.992188 L 236.242188 88.929688 C 235.945312 88.933594 235.652344 88.789062 235.472656 88.519531 C 235.191406 88.101562 235.300781 87.539062 235.710938 87.261719 C 235.898438 87.140625 236.113281 87.097656 236.316406 87.121094 L 237.117188 87.1875 "/>
</g>
<path style=" stroke:none;fill-rule:evenodd;fill:rgb(100%,0.389099%,39.219666%);fill-opacity:1;" d="M 214.238281 97.980469 L 214.238281 97.976562 C 213.378906 98.117188 212.796875 98.929688 212.933594 99.785156 L 213.914062 105.800781 C 214.054688 106.65625 214.867188 107.242188 215.722656 107.105469 C 216.578125 106.964844 217.164062 106.152344 217.023438 105.296875 L 216.046875 99.28125 C 215.90625 98.425781 215.09375 97.839844 214.238281 97.980469 "/>
<path style=" stroke:none;fill-rule:evenodd;fill:rgb(49.798584%,94.119263%,100%);fill-opacity:1;" d="M 201.679688 85.265625 L 204.035156 84.609375 L 205.167969 88.667969 L 209.226562 87.535156 L 209.882812 89.890625 L 205.820312 91.023438 L 206.953125 95.085938 L 204.597656 95.742188 L 203.464844 91.679688 L 199.40625 92.8125 L 198.75 90.457031 L 202.8125 89.324219 L 201.679688 85.265625 "/>
<path style=" stroke:none;fill-rule:evenodd;fill:rgb(32.159424%,44.309998%,100%);fill-opacity:1;" d="M 219.371094 120.972656 C 223.917969 123.960938 225.195312 130.054688 222.242188 134.613281 L 222.203125 134.671875 C 221.738281 135.378906 220.789062 135.578125 220.082031 135.113281 C 219.375 134.648438 219.179688 133.695312 219.644531 132.988281 L 219.640625 132.988281 C 221.710938 129.835938 220.835938 125.605469 217.6875 123.535156 C 214.539062 121.464844 210.304688 122.339844 208.234375 125.488281 L 208.230469 125.484375 C 207.765625 126.191406 206.816406 126.386719 206.109375 125.925781 C 205.402344 125.457031 205.207031 124.507812 205.671875 123.800781 L 205.707031 123.75 C 208.722656 119.226562 214.824219 117.980469 219.371094 120.972656 "/>
<g clip-path="url(#clip23)" clip-rule="nonzero">
<path style=" stroke:none;fill-rule:evenodd;fill:rgb(49.798584%,94.119263%,100%);fill-opacity:1;" d="M 164.398438 136.28125 C 168.941406 139.269531 170.21875 145.363281 167.269531 149.921875 L 167.230469 149.980469 C 166.765625 150.6875 165.8125 150.886719 165.105469 150.421875 C 164.398438 149.957031 164.203125 149.003906 164.667969 148.296875 L 164.664062 148.296875 C 166.734375 145.148438 165.859375 140.914062 162.710938 138.84375 C 159.921875 137.011719 156.285156 137.484375 154.050781 139.804688 L 154.050781 135.957031 C 157.183594 134.167969 161.179688 134.164062 164.398438 136.28125 "/>
</g>
<g clip-path="url(#clip24)" clip-rule="nonzero">
<path style=" stroke:none;fill-rule:evenodd;fill:rgb(49.798584%,94.119263%,100%);fill-opacity:1;" d="M 240.945312 127.84375 C 239.320312 127.644531 238.070312 127.742188 236.929688 129.125 C 235.800781 130.496094 235.351562 132.378906 234.34375 133.714844 C 233.871094 134.34375 233.488281 134.28125 232.761719 134.222656 L 231.554688 134.125 C 230.140625 134.105469 229.808594 136.136719 231.363281 136.539062 L 232.570312 136.636719 C 234.152344 136.761719 235.261719 136.523438 236.277344 135.171875 C 237.289062 133.832031 237.804688 131.867188 238.796875 130.664062 C 239.328125 130.023438 239.898438 130.152344 240.652344 130.246094 L 241.851562 130.390625 C 243.253906 130.511719 243.472656 128.527344 242.144531 127.988281 L 240.945312 127.84375 "/>
</g>
<path style=" stroke:none;fill-rule:evenodd;fill:rgb(49.798584%,94.119263%,100%);fill-opacity:1;" d="M 228.550781 118.8125 C 229.632812 118.8125 230.511719 119.691406 230.511719 120.773438 C 230.511719 121.855469 229.632812 122.730469 228.550781 122.730469 C 227.46875 122.730469 226.59375 121.855469 226.59375 120.773438 C 226.59375 119.691406 227.46875 118.8125 228.550781 118.8125 "/>
<path style=" stroke:none;fill-rule:evenodd;fill:rgb(100%,100%,100%);fill-opacity:1;" d="M 224.351562 90.089844 C 225.433594 90.089844 226.308594 90.96875 226.308594 92.046875 C 226.308594 93.128906 225.433594 94.007812 224.351562 94.007812 C 223.269531 94.007812 222.390625 93.128906 222.390625 92.046875 C 222.390625 90.96875 223.269531 90.089844 224.351562 90.089844 "/>
<path style=" stroke:none;fill-rule:evenodd;fill:rgb(100%,0.389099%,39.219666%);fill-opacity:1;" d="M 183.53125 79.804688 C 184.613281 79.804688 185.488281 80.679688 185.488281 81.761719 C 185.488281 82.84375 184.613281 83.722656 183.53125 83.722656 C 182.449219 83.722656 181.570312 82.84375 181.570312 81.761719 C 181.570312 80.679688 182.449219 79.804688 183.53125 79.804688 "/>
<g clip-path="url(#clip25)" clip-rule="nonzero">
<path style=" stroke:none;fill-rule:evenodd;fill:rgb(49.798584%,94.119263%,100%);fill-opacity:1;" d="M 191.257812 70.8125 C 190.277344 72.566406 188.402344 73.753906 186.25 73.753906 C 184.09375 73.753906 182.21875 72.566406 181.238281 70.8125 L 191.257812 70.8125 "/>
</g>
<path style=" stroke:none;fill-rule:evenodd;fill:rgb(49.798584%,94.119263%,100%);fill-opacity:1;" d="M 197.664062 124.28125 C 198.746094 124.28125 199.625 125.15625 199.625 126.238281 C 199.625 127.320312 198.746094 128.199219 197.664062 128.199219 C 196.582031 128.199219 195.707031 127.320312 195.707031 126.238281 C 195.707031 125.15625 196.582031 124.28125 197.664062 124.28125 "/>
<path style=" stroke:none;fill-rule:evenodd;fill:rgb(49.798584%,94.119263%,100%);fill-opacity:1;" d="M 163.300781 124.601562 C 164.382812 124.601562 165.257812 125.476562 165.257812 126.558594 C 165.257812 127.640625 164.382812 128.515625 163.300781 128.515625 C 162.21875 128.515625 161.34375 127.640625 161.34375 126.558594 C 161.34375 125.476562 162.21875 124.601562 163.300781 124.601562 "/>
<path style=" stroke:none;fill-rule:evenodd;fill:rgb(32.159424%,44.309998%,100%);fill-opacity:1;" d="M 208.398438 111.230469 C 209.480469 111.230469 210.355469 112.109375 210.355469 113.191406 C 210.355469 114.273438 209.480469 115.148438 208.398438 115.148438 C 207.316406 115.148438 206.441406 114.273438 206.441406 113.191406 C 206.441406 112.109375 207.316406 111.230469 208.398438 111.230469 "/>
<g clip-path="url(#clip26)" clip-rule="nonzero">
<path style=" stroke:none;fill-rule:evenodd;fill:rgb(100%,0.389099%,39.219666%);fill-opacity:1;" d="M 170.066406 70.8125 L 171.578125 72.40625 L 169.808594 74.089844 L 166.902344 71.035156 L 163.847656 73.941406 L 162.164062 72.167969 L 163.589844 70.8125 L 170.066406 70.8125 "/>
</g>
<g clip-path="url(#clip27)" clip-rule="nonzero">
<path style=" stroke:none;fill-rule:evenodd;fill:rgb(49.798584%,94.119263%,100%);fill-opacity:1;" d="M 224.871094 70.8125 L 224.542969 71.828125 C 224.273438 72.648438 224.726562 73.542969 225.550781 73.8125 C 226.375 74.082031 227.265625 73.628906 227.539062 72.804688 L 228.1875 70.8125 L 224.871094 70.8125 "/>
</g>
<path style=" stroke:none;fill-rule:evenodd;fill:rgb(100%,0.389099%,39.219666%);fill-opacity:1;" d="M 179.945312 121.246094 C 181.027344 121.246094 181.90625 122.125 181.90625 123.207031 C 181.90625 124.285156 181.027344 125.164062 179.945312 125.164062 C 178.863281 125.164062 177.988281 124.285156 177.988281 123.207031 C 177.988281 122.125 178.863281 121.246094 179.945312 121.246094 "/>
<path style=" stroke:none;fill-rule:evenodd;fill:rgb(32.159424%,44.309998%,100%);fill-opacity:1;" d="M 178.003906 97.980469 C 178.1875 97.839844 178.378906 97.703125 178.574219 97.570312 L 178.574219 97.566406 C 180.386719 96.226562 181.332031 94.542969 180.824219 93.214844 C 180.3125 91.890625 178.484375 91.273438 176.242188 91.484375 C 172.625 91.976562 169.441406 90.78125 168.492188 88.300781 C 167.542969 85.832031 169.101562 82.820312 172.105469 80.765625 C 172.453125 80.507812 172.769531 80.234375 173.050781 79.957031 L 173.972656 82.351562 C 173.660156 82.613281 173.328125 82.867188 172.976562 83.105469 C 171.191406 84.445312 170.261719 86.109375 170.769531 87.429688 C 171.277344 88.753906 173.105469 89.375 175.347656 89.160156 C 178.964844 88.671875 182.148438 89.867188 183.097656 92.34375 C 184.050781 94.820312 182.480469 97.839844 179.46875 99.894531 C 179.269531 100.039062 179.085938 100.1875 178.910156 100.339844 L 178.003906 97.980469 "/>
<path style=" stroke:none;fill-rule:evenodd;fill:rgb(100%,100%,100%);fill-opacity:1;" d="M 214.386719 129.191406 C 215.46875 129.191406 216.34375 130.066406 216.34375 131.148438 C 216.34375 132.230469 215.46875 133.105469 214.386719 133.105469 C 213.304688 133.105469 212.429688 132.230469 212.429688 131.148438 C 212.429688 130.066406 213.304688 129.191406 214.386719 129.191406 "/>
<path style=" stroke:none;fill-rule:evenodd;fill:rgb(49.798584%,94.119263%,100%);fill-opacity:1;" d="M 188.003906 102.363281 C 189.085938 102.363281 189.960938 103.238281 189.960938 104.320312 C 189.960938 105.40625 189.085938 106.28125 188.003906 106.28125 C 186.921875 106.28125 186.042969 105.40625 186.042969 104.320312 C 186.042969 103.238281 186.921875 102.363281 188.003906 102.363281 "/>
</g>
</svg>
